<?xml version="1.0" encoding="utf-8" standalone="no"?>
<!DOCTYPE svg PUBLIC "-//W3C//DTD SVG 1.1//EN"
  "http://www.w3.org/Graphics/SVG/1.1/DTD/svg11.dtd">
<svg xmlns:xlink="http://www.w3.org/1999/xlink" width="560.685pt" height="327.763125pt" viewBox="0 0 560.685 327.763125" xmlns="http://www.w3.org/2000/svg" version="1.1">
 <metadata>
  <rdf:RDF xmlns:dc="http://purl.org/dc/elements/1.1/" xmlns:cc="http://creativecommons.org/ns#" xmlns:rdf="http://www.w3.org/1999/02/22-rdf-syntax-ns#">
   <cc:Work>
    <dc:type rdf:resource="http://purl.org/dc/dcmitype/StillImage"/>
    <dc:date>2022-04-07T17:14:10.475178</dc:date>
    <dc:format>image/svg+xml</dc:format>
    <dc:creator>
     <cc:Agent>
      <dc:title>Matplotlib v3.5.1, https://matplotlib.org/</dc:title>
     </cc:Agent>
    </dc:creator>
   </cc:Work>
  </rdf:RDF>
 </metadata>
 <defs>
  <style type="text/css">*{stroke-linejoin: round; stroke-linecap: butt}</style>
 </defs>
 <g id="figure_1">
  <g id="axes_1">
   <g id="patch_1">
    <path d="M 51.285 284.4 
L 553.485 284.4 
L 553.485 7.2 
L 51.285 7.2 
L 51.285 284.4 
z
" style="fill: none"/>
   </g>
   <g id="matplotlib.axis_1">
    <g id="xtick_1">
     <g id="line2d_1">
      <defs>
       <path id="m4d39360db8" d="M 0 0 
L 0 3.5 
" style="stroke: #000000; stroke-width: 0.8"/>
      </defs>
      <g>
       <use xlink:href="#m4d39360db8" x="51.613683" y="284.4" style="stroke: #000000; stroke-width: 0.8"/>
      </g>
     </g>
     <g id="text_1">
      <!-- 1992 -->
      <g transform="translate(38.888683 298.998438)scale(0.1 -0.1)">
       <defs>
        <path id="DejaVuSans-31" d="M 794 531 
L 1825 531 
L 1825 4091 
L 703 3866 
L 703 4441 
L 1819 4666 
L 2450 4666 
L 2450 531 
L 3481 531 
L 3481 0 
L 794 0 
L 794 531 
z
" transform="scale(0.015625)"/>
        <path id="DejaVuSans-39" d="M 703 97 
L 703 672 
Q 941 559 1184 500 
Q 1428 441 1663 441 
Q 2288 441 2617 861 
Q 2947 1281 2994 2138 
Q 2813 1869 2534 1725 
Q 2256 1581 1919 1581 
Q 1219 1581 811 2004 
Q 403 2428 403 3163 
Q 403 3881 828 4315 
Q 1253 4750 1959 4750 
Q 2769 4750 3195 4129 
Q 3622 3509 3622 2328 
Q 3622 1225 3098 567 
Q 2575 -91 1691 -91 
Q 1453 -91 1209 -44 
Q 966 3 703 97 
z
M 1959 2075 
Q 2384 2075 2632 2365 
Q 2881 2656 2881 3163 
Q 2881 3666 2632 3958 
Q 2384 4250 1959 4250 
Q 1534 4250 1286 3958 
Q 1038 3666 1038 3163 
Q 1038 2656 1286 2365 
Q 1534 2075 1959 2075 
z
" transform="scale(0.015625)"/>
        <path id="DejaVuSans-32" d="M 1228 531 
L 3431 531 
L 3431 0 
L 469 0 
L 469 531 
Q 828 903 1448 1529 
Q 2069 2156 2228 2338 
Q 2531 2678 2651 2914 
Q 2772 3150 2772 3378 
Q 2772 3750 2511 3984 
Q 2250 4219 1831 4219 
Q 1534 4219 1204 4116 
Q 875 4013 500 3803 
L 500 4441 
Q 881 4594 1212 4672 
Q 1544 4750 1819 4750 
Q 2544 4750 2975 4387 
Q 3406 4025 3406 3419 
Q 3406 3131 3298 2873 
Q 3191 2616 2906 2266 
Q 2828 2175 2409 1742 
Q 1991 1309 1228 531 
z
" transform="scale(0.015625)"/>
       </defs>
       <use xlink:href="#DejaVuSans-31"/>
       <use xlink:href="#DejaVuSans-39" x="63.623047"/>
       <use xlink:href="#DejaVuSans-39" x="127.246094"/>
       <use xlink:href="#DejaVuSans-32" x="190.869141"/>
      </g>
     </g>
    </g>
    <g id="xtick_2">
     <g id="line2d_2">
      <g>
       <use xlink:href="#m4d39360db8" x="85.454154" y="284.4" style="stroke: #000000; stroke-width: 0.8"/>
      </g>
     </g>
     <g id="text_2">
      <!-- 1994 -->
      <g transform="translate(72.729154 298.998438)scale(0.1 -0.1)">
       <defs>
        <path id="DejaVuSans-34" d="M 2419 4116 
L 825 1625 
L 2419 1625 
L 2419 4116 
z
M 2253 4666 
L 3047 4666 
L 3047 1625 
L 3713 1625 
L 3713 1100 
L 3047 1100 
L 3047 0 
L 2419 0 
L 2419 1100 
L 313 1100 
L 313 1709 
L 2253 4666 
z
" transform="scale(0.015625)"/>
       </defs>
       <use xlink:href="#DejaVuSans-31"/>
       <use xlink:href="#DejaVuSans-39" x="63.623047"/>
       <use xlink:href="#DejaVuSans-39" x="127.246094"/>
       <use xlink:href="#DejaVuSans-34" x="190.869141"/>
      </g>
     </g>
    </g>
    <g id="xtick_3">
     <g id="line2d_3">
      <g>
       <use xlink:href="#m4d39360db8" x="119.248332" y="284.4" style="stroke: #000000; stroke-width: 0.8"/>
      </g>
     </g>
     <g id="text_3">
      <!-- 1996 -->
      <g transform="translate(106.523332 298.998438)scale(0.1 -0.1)">
       <defs>
        <path id="DejaVuSans-36" d="M 2113 2584 
Q 1688 2584 1439 2293 
Q 1191 2003 1191 1497 
Q 1191 994 1439 701 
Q 1688 409 2113 409 
Q 2538 409 2786 701 
Q 3034 994 3034 1497 
Q 3034 2003 2786 2293 
Q 2538 2584 2113 2584 
z
M 3366 4563 
L 3366 3988 
Q 3128 4100 2886 4159 
Q 2644 4219 2406 4219 
Q 1781 4219 1451 3797 
Q 1122 3375 1075 2522 
Q 1259 2794 1537 2939 
Q 1816 3084 2150 3084 
Q 2853 3084 3261 2657 
Q 3669 2231 3669 1497 
Q 3669 778 3244 343 
Q 2819 -91 2113 -91 
Q 1303 -91 875 529 
Q 447 1150 447 2328 
Q 447 3434 972 4092 
Q 1497 4750 2381 4750 
Q 2619 4750 2861 4703 
Q 3103 4656 3366 4563 
z
" transform="scale(0.015625)"/>
       </defs>
       <use xlink:href="#DejaVuSans-31"/>
       <use xlink:href="#DejaVuSans-39" x="63.623047"/>
       <use xlink:href="#DejaVuSans-39" x="127.246094"/>
       <use xlink:href="#DejaVuSans-36" x="190.869141"/>
      </g>
     </g>
    </g>
    <g id="xtick_4">
     <g id="line2d_4">
      <g>
       <use xlink:href="#m4d39360db8" x="153.088803" y="284.4" style="stroke: #000000; stroke-width: 0.8"/>
      </g>
     </g>
     <g id="text_4">
      <!-- 1998 -->
      <g transform="translate(140.363803 298.998438)scale(0.1 -0.1)">
       <defs>
        <path id="DejaVuSans-38" d="M 2034 2216 
Q 1584 2216 1326 1975 
Q 1069 1734 1069 1313 
Q 1069 891 1326 650 
Q 1584 409 2034 409 
Q 2484 409 2743 651 
Q 3003 894 3003 1313 
Q 3003 1734 2745 1975 
Q 2488 2216 2034 2216 
z
M 1403 2484 
Q 997 2584 770 2862 
Q 544 3141 544 3541 
Q 544 4100 942 4425 
Q 1341 4750 2034 4750 
Q 2731 4750 3128 4425 
Q 3525 4100 3525 3541 
Q 3525 3141 3298 2862 
Q 3072 2584 2669 2484 
Q 3125 2378 3379 2068 
Q 3634 1759 3634 1313 
Q 3634 634 3220 271 
Q 2806 -91 2034 -91 
Q 1263 -91 848 271 
Q 434 634 434 1313 
Q 434 1759 690 2068 
Q 947 2378 1403 2484 
z
M 1172 3481 
Q 1172 3119 1398 2916 
Q 1625 2713 2034 2713 
Q 2441 2713 2670 2916 
Q 2900 3119 2900 3481 
Q 2900 3844 2670 4047 
Q 2441 4250 2034 4250 
Q 1625 4250 1398 4047 
Q 1172 3844 1172 3481 
z
" transform="scale(0.015625)"/>
       </defs>
       <use xlink:href="#DejaVuSans-31"/>
       <use xlink:href="#DejaVuSans-39" x="63.623047"/>
       <use xlink:href="#DejaVuSans-39" x="127.246094"/>
       <use xlink:href="#DejaVuSans-38" x="190.869141"/>
      </g>
     </g>
    </g>
    <g id="xtick_5">
     <g id="line2d_5">
      <g>
       <use xlink:href="#m4d39360db8" x="186.882981" y="284.4" style="stroke: #000000; stroke-width: 0.8"/>
      </g>
     </g>
     <g id="text_5">
      <!-- 2000 -->
      <g transform="translate(174.157981 298.998438)scale(0.1 -0.1)">
       <defs>
        <path id="DejaVuSans-30" d="M 2034 4250 
Q 1547 4250 1301 3770 
Q 1056 3291 1056 2328 
Q 1056 1369 1301 889 
Q 1547 409 2034 409 
Q 2525 409 2770 889 
Q 3016 1369 3016 2328 
Q 3016 3291 2770 3770 
Q 2525 4250 2034 4250 
z
M 2034 4750 
Q 2819 4750 3233 4129 
Q 3647 3509 3647 2328 
Q 3647 1150 3233 529 
Q 2819 -91 2034 -91 
Q 1250 -91 836 529 
Q 422 1150 422 2328 
Q 422 3509 836 4129 
Q 1250 4750 2034 4750 
z
" transform="scale(0.015625)"/>
       </defs>
       <use xlink:href="#DejaVuSans-32"/>
       <use xlink:href="#DejaVuSans-30" x="63.623047"/>
       <use xlink:href="#DejaVuSans-30" x="127.246094"/>
       <use xlink:href="#DejaVuSans-30" x="190.869141"/>
      </g>
     </g>
    </g>
    <g id="xtick_6">
     <g id="line2d_6">
      <g>
       <use xlink:href="#m4d39360db8" x="220.723452" y="284.4" style="stroke: #000000; stroke-width: 0.8"/>
      </g>
     </g>
     <g id="text_6">
      <!-- 2002 -->
      <g transform="translate(207.998452 298.998438)scale(0.1 -0.1)">
       <use xlink:href="#DejaVuSans-32"/>
       <use xlink:href="#DejaVuSans-30" x="63.623047"/>
       <use xlink:href="#DejaVuSans-30" x="127.246094"/>
       <use xlink:href="#DejaVuSans-32" x="190.869141"/>
      </g>
     </g>
    </g>
    <g id="xtick_7">
     <g id="line2d_7">
      <g>
       <use xlink:href="#m4d39360db8" x="254.51763" y="284.4" style="stroke: #000000; stroke-width: 0.8"/>
      </g>
     </g>
     <g id="text_7">
      <!-- 2004 -->
      <g transform="translate(241.79263 298.998438)scale(0.1 -0.1)">
       <use xlink:href="#DejaVuSans-32"/>
       <use xlink:href="#DejaVuSans-30" x="63.623047"/>
       <use xlink:href="#DejaVuSans-30" x="127.246094"/>
       <use xlink:href="#DejaVuSans-34" x="190.869141"/>
      </g>
     </g>
    </g>
    <g id="xtick_8">
     <g id="line2d_8">
      <g>
       <use xlink:href="#m4d39360db8" x="288.358102" y="284.4" style="stroke: #000000; stroke-width: 0.8"/>
      </g>
     </g>
     <g id="text_8">
      <!-- 2006 -->
      <g transform="translate(275.633102 298.998438)scale(0.1 -0.1)">
       <use xlink:href="#DejaVuSans-32"/>
       <use xlink:href="#DejaVuSans-30" x="63.623047"/>
       <use xlink:href="#DejaVuSans-30" x="127.246094"/>
       <use xlink:href="#DejaVuSans-36" x="190.869141"/>
      </g>
     </g>
    </g>
    <g id="xtick_9">
     <g id="line2d_9">
      <g>
       <use xlink:href="#m4d39360db8" x="322.152279" y="284.4" style="stroke: #000000; stroke-width: 0.8"/>
      </g>
     </g>
     <g id="text_9">
      <!-- 2008 -->
      <g transform="translate(309.427279 298.998438)scale(0.1 -0.1)">
       <use xlink:href="#DejaVuSans-32"/>
       <use xlink:href="#DejaVuSans-30" x="63.623047"/>
       <use xlink:href="#DejaVuSans-30" x="127.246094"/>
       <use xlink:href="#DejaVuSans-38" x="190.869141"/>
      </g>
     </g>
    </g>
    <g id="xtick_10">
     <g id="line2d_10">
      <g>
       <use xlink:href="#m4d39360db8" x="355.992751" y="284.4" style="stroke: #000000; stroke-width: 0.8"/>
      </g>
     </g>
     <g id="text_10">
      <!-- 2010 -->
      <g transform="translate(343.267751 298.998438)scale(0.1 -0.1)">
       <use xlink:href="#DejaVuSans-32"/>
       <use xlink:href="#DejaVuSans-30" x="63.623047"/>
       <use xlink:href="#DejaVuSans-31" x="127.246094"/>
       <use xlink:href="#DejaVuSans-30" x="190.869141"/>
      </g>
     </g>
    </g>
    <g id="xtick_11">
     <g id="line2d_11">
      <g>
       <use xlink:href="#m4d39360db8" x="389.786928" y="284.4" style="stroke: #000000; stroke-width: 0.8"/>
      </g>
     </g>
     <g id="text_11">
      <!-- 2012 -->
      <g transform="translate(377.061928 298.998438)scale(0.1 -0.1)">
       <use xlink:href="#DejaVuSans-32"/>
       <use xlink:href="#DejaVuSans-30" x="63.623047"/>
       <use xlink:href="#DejaVuSans-31" x="127.246094"/>
       <use xlink:href="#DejaVuSans-32" x="190.869141"/>
      </g>
     </g>
    </g>
    <g id="xtick_12">
     <g id="line2d_12">
      <g>
       <use xlink:href="#m4d39360db8" x="423.6274" y="284.4" style="stroke: #000000; stroke-width: 0.8"/>
      </g>
     </g>
     <g id="text_12">
      <!-- 2014 -->
      <g transform="translate(410.9024 298.998438)scale(0.1 -0.1)">
       <use xlink:href="#DejaVuSans-32"/>
       <use xlink:href="#DejaVuSans-30" x="63.623047"/>
       <use xlink:href="#DejaVuSans-31" x="127.246094"/>
       <use xlink:href="#DejaVuSans-34" x="190.869141"/>
      </g>
     </g>
    </g>
    <g id="xtick_13">
     <g id="line2d_13">
      <g>
       <use xlink:href="#m4d39360db8" x="457.421577" y="284.4" style="stroke: #000000; stroke-width: 0.8"/>
      </g>
     </g>
     <g id="text_13">
      <!-- 2016 -->
      <g transform="translate(444.696577 298.998438)scale(0.1 -0.1)">
       <use xlink:href="#DejaVuSans-32"/>
       <use xlink:href="#DejaVuSans-30" x="63.623047"/>
       <use xlink:href="#DejaVuSans-31" x="127.246094"/>
       <use xlink:href="#DejaVuSans-36" x="190.869141"/>
      </g>
     </g>
    </g>
    <g id="xtick_14">
     <g id="line2d_14">
      <g>
       <use xlink:href="#m4d39360db8" x="491.262049" y="284.4" style="stroke: #000000; stroke-width: 0.8"/>
      </g>
     </g>
     <g id="text_14">
      <!-- 2018 -->
      <g transform="translate(478.537049 298.998438)scale(0.1 -0.1)">
       <use xlink:href="#DejaVuSans-32"/>
       <use xlink:href="#DejaVuSans-30" x="63.623047"/>
       <use xlink:href="#DejaVuSans-31" x="127.246094"/>
       <use xlink:href="#DejaVuSans-38" x="190.869141"/>
      </g>
     </g>
    </g>
    <g id="xtick_15">
     <g id="line2d_15">
      <g>
       <use xlink:href="#m4d39360db8" x="525.056227" y="284.4" style="stroke: #000000; stroke-width: 0.8"/>
      </g>
     </g>
     <g id="text_15">
      <!-- 2020 -->
      <g transform="translate(512.331227 298.998438)scale(0.1 -0.1)">
       <use xlink:href="#DejaVuSans-32"/>
       <use xlink:href="#DejaVuSans-30" x="63.623047"/>
       <use xlink:href="#DejaVuSans-32" x="127.246094"/>
       <use xlink:href="#DejaVuSans-30" x="190.869141"/>
      </g>
     </g>
    </g>
    <g id="text_16">
     <!-- Date -->
     <g transform="translate(283.26375 317.235625)scale(0.16 -0.16)">
      <defs>
       <path id="DejaVuSans-44" d="M 1259 4147 
L 1259 519 
L 2022 519 
Q 2988 519 3436 956 
Q 3884 1394 3884 2338 
Q 3884 3275 3436 3711 
Q 2988 4147 2022 4147 
L 1259 4147 
z
M 628 4666 
L 1925 4666 
Q 3281 4666 3915 4102 
Q 4550 3538 4550 2338 
Q 4550 1131 3912 565 
Q 3275 0 1925 0 
L 628 0 
L 628 4666 
z
" transform="scale(0.015625)"/>
       <path id="DejaVuSans-61" d="M 2194 1759 
Q 1497 1759 1228 1600 
Q 959 1441 959 1056 
Q 959 750 1161 570 
Q 1363 391 1709 391 
Q 2188 391 2477 730 
Q 2766 1069 2766 1631 
L 2766 1759 
L 2194 1759 
z
M 3341 1997 
L 3341 0 
L 2766 0 
L 2766 531 
Q 2569 213 2275 61 
Q 1981 -91 1556 -91 
Q 1019 -91 701 211 
Q 384 513 384 1019 
Q 384 1609 779 1909 
Q 1175 2209 1959 2209 
L 2766 2209 
L 2766 2266 
Q 2766 2663 2505 2880 
Q 2244 3097 1772 3097 
Q 1472 3097 1187 3025 
Q 903 2953 641 2809 
L 641 3341 
Q 956 3463 1253 3523 
Q 1550 3584 1831 3584 
Q 2591 3584 2966 3190 
Q 3341 2797 3341 1997 
z
" transform="scale(0.015625)"/>
       <path id="DejaVuSans-74" d="M 1172 4494 
L 1172 3500 
L 2356 3500 
L 2356 3053 
L 1172 3053 
L 1172 1153 
Q 1172 725 1289 603 
Q 1406 481 1766 481 
L 2356 481 
L 2356 0 
L 1766 0 
Q 1100 0 847 248 
Q 594 497 594 1153 
L 594 3053 
L 172 3053 
L 172 3500 
L 594 3500 
L 594 4494 
L 1172 4494 
z
" transform="scale(0.015625)"/>
       <path id="DejaVuSans-65" d="M 3597 1894 
L 3597 1613 
L 953 1613 
Q 991 1019 1311 708 
Q 1631 397 2203 397 
Q 2534 397 2845 478 
Q 3156 559 3463 722 
L 3463 178 
Q 3153 47 2828 -22 
Q 2503 -91 2169 -91 
Q 1331 -91 842 396 
Q 353 884 353 1716 
Q 353 2575 817 3079 
Q 1281 3584 2069 3584 
Q 2775 3584 3186 3129 
Q 3597 2675 3597 1894 
z
M 3022 2063 
Q 3016 2534 2758 2815 
Q 2500 3097 2075 3097 
Q 1594 3097 1305 2825 
Q 1016 2553 972 2059 
L 3022 2063 
z
" transform="scale(0.015625)"/>
      </defs>
      <use xlink:href="#DejaVuSans-44"/>
      <use xlink:href="#DejaVuSans-61" x="77.001953"/>
      <use xlink:href="#DejaVuSans-74" x="138.28125"/>
      <use xlink:href="#DejaVuSans-65" x="177.490234"/>
     </g>
    </g>
   </g>
   <g id="matplotlib.axis_2">
    <g id="ytick_1">
     <g id="line2d_16">
      <defs>
       <path id="md662eb0a0d" d="M 0 0 
L -3.5 0 
" style="stroke: #000000; stroke-width: 0.8"/>
      </defs>
      <g>
       <use xlink:href="#md662eb0a0d" x="51.285" y="236.107868" style="stroke: #000000; stroke-width: 0.8"/>
      </g>
     </g>
     <g id="text_17">
      <!-- $\mathdefault{10^{1}}$ -->
      <g transform="translate(26.685 239.907087)scale(0.1 -0.1)">
       <use xlink:href="#DejaVuSans-31" transform="translate(0 0.684375)"/>
       <use xlink:href="#DejaVuSans-30" transform="translate(63.623047 0.684375)"/>
       <use xlink:href="#DejaVuSans-31" transform="translate(128.203125 38.965625)scale(0.7)"/>
      </g>
     </g>
    </g>
    <g id="ytick_2">
     <g id="line2d_17">
      <g>
       <use xlink:href="#md662eb0a0d" x="51.285" y="184.258058" style="stroke: #000000; stroke-width: 0.8"/>
      </g>
     </g>
     <g id="text_18">
      <!-- $\mathdefault{10^{3}}$ -->
      <g transform="translate(26.685 188.057276)scale(0.1 -0.1)">
       <defs>
        <path id="DejaVuSans-33" d="M 2597 2516 
Q 3050 2419 3304 2112 
Q 3559 1806 3559 1356 
Q 3559 666 3084 287 
Q 2609 -91 1734 -91 
Q 1441 -91 1130 -33 
Q 819 25 488 141 
L 488 750 
Q 750 597 1062 519 
Q 1375 441 1716 441 
Q 2309 441 2620 675 
Q 2931 909 2931 1356 
Q 2931 1769 2642 2001 
Q 2353 2234 1838 2234 
L 1294 2234 
L 1294 2753 
L 1863 2753 
Q 2328 2753 2575 2939 
Q 2822 3125 2822 3475 
Q 2822 3834 2567 4026 
Q 2313 4219 1838 4219 
Q 1578 4219 1281 4162 
Q 984 4106 628 3988 
L 628 4550 
Q 988 4650 1302 4700 
Q 1616 4750 1894 4750 
Q 2613 4750 3031 4423 
Q 3450 4097 3450 3541 
Q 3450 3153 3228 2886 
Q 3006 2619 2597 2516 
z
" transform="scale(0.015625)"/>
       </defs>
       <use xlink:href="#DejaVuSans-31" transform="translate(0 0.765625)"/>
       <use xlink:href="#DejaVuSans-30" transform="translate(63.623047 0.765625)"/>
       <use xlink:href="#DejaVuSans-33" transform="translate(128.203125 39.046875)scale(0.7)"/>
      </g>
     </g>
    </g>
    <g id="ytick_3">
     <g id="line2d_18">
      <g>
       <use xlink:href="#md662eb0a0d" x="51.285" y="132.408247" style="stroke: #000000; stroke-width: 0.8"/>
      </g>
     </g>
     <g id="text_19">
      <!-- $\mathdefault{10^{5}}$ -->
      <g transform="translate(26.685 136.207466)scale(0.1 -0.1)">
       <defs>
        <path id="DejaVuSans-35" d="M 691 4666 
L 3169 4666 
L 3169 4134 
L 1269 4134 
L 1269 2991 
Q 1406 3038 1543 3061 
Q 1681 3084 1819 3084 
Q 2600 3084 3056 2656 
Q 3513 2228 3513 1497 
Q 3513 744 3044 326 
Q 2575 -91 1722 -91 
Q 1428 -91 1123 -41 
Q 819 9 494 109 
L 494 744 
Q 775 591 1075 516 
Q 1375 441 1709 441 
Q 2250 441 2565 725 
Q 2881 1009 2881 1497 
Q 2881 1984 2565 2268 
Q 2250 2553 1709 2553 
Q 1456 2553 1204 2497 
Q 953 2441 691 2322 
L 691 4666 
z
" transform="scale(0.015625)"/>
       </defs>
       <use xlink:href="#DejaVuSans-31" transform="translate(0 0.684375)"/>
       <use xlink:href="#DejaVuSans-30" transform="translate(63.623047 0.684375)"/>
       <use xlink:href="#DejaVuSans-35" transform="translate(128.203125 38.965625)scale(0.7)"/>
      </g>
     </g>
    </g>
    <g id="ytick_4">
     <g id="line2d_19">
      <g>
       <use xlink:href="#md662eb0a0d" x="51.285" y="80.558437" style="stroke: #000000; stroke-width: 0.8"/>
      </g>
     </g>
     <g id="text_20">
      <!-- $\mathdefault{10^{7}}$ -->
      <g transform="translate(26.685 84.357655)scale(0.1 -0.1)">
       <defs>
        <path id="DejaVuSans-37" d="M 525 4666 
L 3525 4666 
L 3525 4397 
L 1831 0 
L 1172 0 
L 2766 4134 
L 525 4134 
L 525 4666 
z
" transform="scale(0.015625)"/>
       </defs>
       <use xlink:href="#DejaVuSans-31" transform="translate(0 0.684375)"/>
       <use xlink:href="#DejaVuSans-30" transform="translate(63.623047 0.684375)"/>
       <use xlink:href="#DejaVuSans-37" transform="translate(128.203125 38.965625)scale(0.7)"/>
      </g>
     </g>
    </g>
    <g id="ytick_5">
     <g id="line2d_20">
      <g>
       <use xlink:href="#md662eb0a0d" x="51.285" y="28.708626" style="stroke: #000000; stroke-width: 0.8"/>
      </g>
     </g>
     <g id="text_21">
      <!-- $\mathdefault{10^{9}}$ -->
      <g transform="translate(26.685 32.507845)scale(0.1 -0.1)">
       <use xlink:href="#DejaVuSans-31" transform="translate(0 0.765625)"/>
       <use xlink:href="#DejaVuSans-30" transform="translate(63.623047 0.765625)"/>
       <use xlink:href="#DejaVuSans-39" transform="translate(128.203125 39.046875)scale(0.7)"/>
      </g>
     </g>
    </g>
    <g id="text_22">
     <!-- Performance [GFlops/s] -->
     <g transform="translate(19.3575 239.3025)rotate(-90)scale(0.16 -0.16)">
      <defs>
       <path id="DejaVuSans-50" d="M 1259 4147 
L 1259 2394 
L 2053 2394 
Q 2494 2394 2734 2622 
Q 2975 2850 2975 3272 
Q 2975 3691 2734 3919 
Q 2494 4147 2053 4147 
L 1259 4147 
z
M 628 4666 
L 2053 4666 
Q 2838 4666 3239 4311 
Q 3641 3956 3641 3272 
Q 3641 2581 3239 2228 
Q 2838 1875 2053 1875 
L 1259 1875 
L 1259 0 
L 628 0 
L 628 4666 
z
" transform="scale(0.015625)"/>
       <path id="DejaVuSans-72" d="M 2631 2963 
Q 2534 3019 2420 3045 
Q 2306 3072 2169 3072 
Q 1681 3072 1420 2755 
Q 1159 2438 1159 1844 
L 1159 0 
L 581 0 
L 581 3500 
L 1159 3500 
L 1159 2956 
Q 1341 3275 1631 3429 
Q 1922 3584 2338 3584 
Q 2397 3584 2469 3576 
Q 2541 3569 2628 3553 
L 2631 2963 
z
" transform="scale(0.015625)"/>
       <path id="DejaVuSans-66" d="M 2375 4863 
L 2375 4384 
L 1825 4384 
Q 1516 4384 1395 4259 
Q 1275 4134 1275 3809 
L 1275 3500 
L 2222 3500 
L 2222 3053 
L 1275 3053 
L 1275 0 
L 697 0 
L 697 3053 
L 147 3053 
L 147 3500 
L 697 3500 
L 697 3744 
Q 697 4328 969 4595 
Q 1241 4863 1831 4863 
L 2375 4863 
z
" transform="scale(0.015625)"/>
       <path id="DejaVuSans-6f" d="M 1959 3097 
Q 1497 3097 1228 2736 
Q 959 2375 959 1747 
Q 959 1119 1226 758 
Q 1494 397 1959 397 
Q 2419 397 2687 759 
Q 2956 1122 2956 1747 
Q 2956 2369 2687 2733 
Q 2419 3097 1959 3097 
z
M 1959 3584 
Q 2709 3584 3137 3096 
Q 3566 2609 3566 1747 
Q 3566 888 3137 398 
Q 2709 -91 1959 -91 
Q 1206 -91 779 398 
Q 353 888 353 1747 
Q 353 2609 779 3096 
Q 1206 3584 1959 3584 
z
" transform="scale(0.015625)"/>
       <path id="DejaVuSans-6d" d="M 3328 2828 
Q 3544 3216 3844 3400 
Q 4144 3584 4550 3584 
Q 5097 3584 5394 3201 
Q 5691 2819 5691 2113 
L 5691 0 
L 5113 0 
L 5113 2094 
Q 5113 2597 4934 2840 
Q 4756 3084 4391 3084 
Q 3944 3084 3684 2787 
Q 3425 2491 3425 1978 
L 3425 0 
L 2847 0 
L 2847 2094 
Q 2847 2600 2669 2842 
Q 2491 3084 2119 3084 
Q 1678 3084 1418 2786 
Q 1159 2488 1159 1978 
L 1159 0 
L 581 0 
L 581 3500 
L 1159 3500 
L 1159 2956 
Q 1356 3278 1631 3431 
Q 1906 3584 2284 3584 
Q 2666 3584 2933 3390 
Q 3200 3197 3328 2828 
z
" transform="scale(0.015625)"/>
       <path id="DejaVuSans-6e" d="M 3513 2113 
L 3513 0 
L 2938 0 
L 2938 2094 
Q 2938 2591 2744 2837 
Q 2550 3084 2163 3084 
Q 1697 3084 1428 2787 
Q 1159 2491 1159 1978 
L 1159 0 
L 581 0 
L 581 3500 
L 1159 3500 
L 1159 2956 
Q 1366 3272 1645 3428 
Q 1925 3584 2291 3584 
Q 2894 3584 3203 3211 
Q 3513 2838 3513 2113 
z
" transform="scale(0.015625)"/>
       <path id="DejaVuSans-63" d="M 3122 3366 
L 3122 2828 
Q 2878 2963 2633 3030 
Q 2388 3097 2138 3097 
Q 1578 3097 1268 2742 
Q 959 2388 959 1747 
Q 959 1106 1268 751 
Q 1578 397 2138 397 
Q 2388 397 2633 464 
Q 2878 531 3122 666 
L 3122 134 
Q 2881 22 2623 -34 
Q 2366 -91 2075 -91 
Q 1284 -91 818 406 
Q 353 903 353 1747 
Q 353 2603 823 3093 
Q 1294 3584 2113 3584 
Q 2378 3584 2631 3529 
Q 2884 3475 3122 3366 
z
" transform="scale(0.015625)"/>
       <path id="DejaVuSans-20" transform="scale(0.015625)"/>
       <path id="DejaVuSans-5b" d="M 550 4863 
L 1875 4863 
L 1875 4416 
L 1125 4416 
L 1125 -397 
L 1875 -397 
L 1875 -844 
L 550 -844 
L 550 4863 
z
" transform="scale(0.015625)"/>
       <path id="DejaVuSans-47" d="M 3809 666 
L 3809 1919 
L 2778 1919 
L 2778 2438 
L 4434 2438 
L 4434 434 
Q 4069 175 3628 42 
Q 3188 -91 2688 -91 
Q 1594 -91 976 548 
Q 359 1188 359 2328 
Q 359 3472 976 4111 
Q 1594 4750 2688 4750 
Q 3144 4750 3555 4637 
Q 3966 4525 4313 4306 
L 4313 3634 
Q 3963 3931 3569 4081 
Q 3175 4231 2741 4231 
Q 1884 4231 1454 3753 
Q 1025 3275 1025 2328 
Q 1025 1384 1454 906 
Q 1884 428 2741 428 
Q 3075 428 3337 486 
Q 3600 544 3809 666 
z
" transform="scale(0.015625)"/>
       <path id="DejaVuSans-46" d="M 628 4666 
L 3309 4666 
L 3309 4134 
L 1259 4134 
L 1259 2759 
L 3109 2759 
L 3109 2228 
L 1259 2228 
L 1259 0 
L 628 0 
L 628 4666 
z
" transform="scale(0.015625)"/>
       <path id="DejaVuSans-6c" d="M 603 4863 
L 1178 4863 
L 1178 0 
L 603 0 
L 603 4863 
z
" transform="scale(0.015625)"/>
       <path id="DejaVuSans-70" d="M 1159 525 
L 1159 -1331 
L 581 -1331 
L 581 3500 
L 1159 3500 
L 1159 2969 
Q 1341 3281 1617 3432 
Q 1894 3584 2278 3584 
Q 2916 3584 3314 3078 
Q 3713 2572 3713 1747 
Q 3713 922 3314 415 
Q 2916 -91 2278 -91 
Q 1894 -91 1617 61 
Q 1341 213 1159 525 
z
M 3116 1747 
Q 3116 2381 2855 2742 
Q 2594 3103 2138 3103 
Q 1681 3103 1420 2742 
Q 1159 2381 1159 1747 
Q 1159 1113 1420 752 
Q 1681 391 2138 391 
Q 2594 391 2855 752 
Q 3116 1113 3116 1747 
z
" transform="scale(0.015625)"/>
       <path id="DejaVuSans-73" d="M 2834 3397 
L 2834 2853 
Q 2591 2978 2328 3040 
Q 2066 3103 1784 3103 
Q 1356 3103 1142 2972 
Q 928 2841 928 2578 
Q 928 2378 1081 2264 
Q 1234 2150 1697 2047 
L 1894 2003 
Q 2506 1872 2764 1633 
Q 3022 1394 3022 966 
Q 3022 478 2636 193 
Q 2250 -91 1575 -91 
Q 1294 -91 989 -36 
Q 684 19 347 128 
L 347 722 
Q 666 556 975 473 
Q 1284 391 1588 391 
Q 1994 391 2212 530 
Q 2431 669 2431 922 
Q 2431 1156 2273 1281 
Q 2116 1406 1581 1522 
L 1381 1569 
Q 847 1681 609 1914 
Q 372 2147 372 2553 
Q 372 3047 722 3315 
Q 1072 3584 1716 3584 
Q 2034 3584 2315 3537 
Q 2597 3491 2834 3397 
z
" transform="scale(0.015625)"/>
       <path id="DejaVuSans-2f" d="M 1625 4666 
L 2156 4666 
L 531 -594 
L 0 -594 
L 1625 4666 
z
" transform="scale(0.015625)"/>
       <path id="DejaVuSans-5d" d="M 1947 4863 
L 1947 -844 
L 622 -844 
L 622 -397 
L 1369 -397 
L 1369 4416 
L 622 4416 
L 622 4863 
L 1947 4863 
z
" transform="scale(0.015625)"/>
      </defs>
      <use xlink:href="#DejaVuSans-50"/>
      <use xlink:href="#DejaVuSans-65" x="56.677734"/>
      <use xlink:href="#DejaVuSans-72" x="118.201172"/>
      <use xlink:href="#DejaVuSans-66" x="159.314453"/>
      <use xlink:href="#DejaVuSans-6f" x="194.519531"/>
      <use xlink:href="#DejaVuSans-72" x="255.701172"/>
      <use xlink:href="#DejaVuSans-6d" x="295.064453"/>
      <use xlink:href="#DejaVuSans-61" x="392.476562"/>
      <use xlink:href="#DejaVuSans-6e" x="453.755859"/>
      <use xlink:href="#DejaVuSans-63" x="517.134766"/>
      <use xlink:href="#DejaVuSans-65" x="572.115234"/>
      <use xlink:href="#DejaVuSans-20" x="633.638672"/>
      <use xlink:href="#DejaVuSans-5b" x="665.425781"/>
      <use xlink:href="#DejaVuSans-47" x="704.439453"/>
      <use xlink:href="#DejaVuSans-46" x="781.929688"/>
      <use xlink:href="#DejaVuSans-6c" x="839.449219"/>
      <use xlink:href="#DejaVuSans-6f" x="867.232422"/>
      <use xlink:href="#DejaVuSans-70" x="928.414062"/>
      <use xlink:href="#DejaVuSans-73" x="991.890625"/>
      <use xlink:href="#DejaVuSans-2f" x="1043.990234"/>
      <use xlink:href="#DejaVuSans-73" x="1077.681641"/>
      <use xlink:href="#DejaVuSans-5d" x="1129.78125"/>
     </g>
    </g>
   </g>
   <g id="line2d_21">
    <path d="M 74.112273 182.896261 
L 81.195162 179.742935 
L 91.009362 174.797336 
L 98.092251 172.941348 
L 107.906451 168.857085 
L 114.98934 166.633736 
L 124.849833 164.288611 
L 131.932722 160.871969 
L 141.746922 155.514941 
L 148.829811 152.426464 
L 158.644011 149.140407 
L 165.7269 146.203707 
L 175.5411 142.991809 
L 182.623989 140.003035 
L 192.484482 137.392604 
L 199.567371 133.836985 
L 209.381571 131.512922 
L 216.46446 129.031232 
L 226.27866 123.41571 
L 233.361549 120.350409 
L 243.175749 117.676172 
L 250.258638 113.700923 
L 260.119131 108.823751 
L 267.20202 105.118907 
L 277.01622 100.542892 
L 284.099109 97.108805 
L 293.913309 94.933252 
L 300.996198 92.289138 
L 310.810398 88.474402 
L 317.893287 84.610352 
L 327.75378 78.363311 
L 334.836669 74.339368 
L 344.650869 71.357906 
L 351.733758 68.963314 
L 361.547958 67.310559 
L 368.630847 63.931654 
L 378.445047 60.587532 
L 385.527936 58.013097 
L 395.388429 52.264572 
L 402.471318 49.192191 
L 412.285518 45.326161 
L 419.368407 44.095274 
L 429.182607 43.095865 
L 436.265496 41.785797 
L 446.079696 40.082691 
L 453.162585 38.406113 
L 463.023078 34.996619 
L 470.105968 33.104393 
L 479.920167 31.898564 
L 487.003056 30.543989 
L 496.817256 26.553914 
L 503.900145 24.800633 
L 513.714345 23.704954 
L 520.797234 23.091637 
L 530.657727 19.8 
" clip-path="url(#p407537465e)" style="fill: none; stroke: #1f77b4; stroke-width: 1.5; stroke-linecap: square"/>
    <defs>
     <path id="m82b4630cf6" d="M 0 3 
C 0.795609 3 1.55874 2.683901 2.12132 2.12132 
C 2.683901 1.55874 3 0.795609 3 0 
C 3 -0.795609 2.683901 -1.55874 2.12132 -2.12132 
C 1.55874 -2.683901 0.795609 -3 0 -3 
C -0.795609 -3 -1.55874 -2.683901 -2.12132 -2.12132 
C -2.683901 -1.55874 -3 -0.795609 -3 0 
C -3 0.795609 -2.683901 1.55874 -2.12132 2.12132 
C -1.55874 2.683901 -0.795609 3 0 3 
z
" style="stroke: #1f77b4"/>
    </defs>
    <g clip-path="url(#p407537465e)">
     <use xlink:href="#m82b4630cf6" x="74.112273" y="182.896261" style="fill: #1f77b4; stroke: #1f77b4"/>
     <use xlink:href="#m82b4630cf6" x="81.195162" y="179.742935" style="fill: #1f77b4; stroke: #1f77b4"/>
     <use xlink:href="#m82b4630cf6" x="91.009362" y="174.797336" style="fill: #1f77b4; stroke: #1f77b4"/>
     <use xlink:href="#m82b4630cf6" x="98.092251" y="172.941348" style="fill: #1f77b4; stroke: #1f77b4"/>
     <use xlink:href="#m82b4630cf6" x="107.906451" y="168.857085" style="fill: #1f77b4; stroke: #1f77b4"/>
     <use xlink:href="#m82b4630cf6" x="114.98934" y="166.633736" style="fill: #1f77b4; stroke: #1f77b4"/>
     <use xlink:href="#m82b4630cf6" x="124.849833" y="164.288611" style="fill: #1f77b4; stroke: #1f77b4"/>
     <use xlink:href="#m82b4630cf6" x="131.932722" y="160.871969" style="fill: #1f77b4; stroke: #1f77b4"/>
     <use xlink:href="#m82b4630cf6" x="141.746922" y="155.514941" style="fill: #1f77b4; stroke: #1f77b4"/>
     <use xlink:href="#m82b4630cf6" x="148.829811" y="152.426464" style="fill: #1f77b4; stroke: #1f77b4"/>
     <use xlink:href="#m82b4630cf6" x="158.644011" y="149.140407" style="fill: #1f77b4; stroke: #1f77b4"/>
     <use xlink:href="#m82b4630cf6" x="165.7269" y="146.203707" style="fill: #1f77b4; stroke: #1f77b4"/>
     <use xlink:href="#m82b4630cf6" x="175.5411" y="142.991809" style="fill: #1f77b4; stroke: #1f77b4"/>
     <use xlink:href="#m82b4630cf6" x="182.623989" y="140.003035" style="fill: #1f77b4; stroke: #1f77b4"/>
     <use xlink:href="#m82b4630cf6" x="192.484482" y="137.392604" style="fill: #1f77b4; stroke: #1f77b4"/>
     <use xlink:href="#m82b4630cf6" x="199.567371" y="133.836985" style="fill: #1f77b4; stroke: #1f77b4"/>
     <use xlink:href="#m82b4630cf6" x="209.381571" y="131.512922" style="fill: #1f77b4; stroke: #1f77b4"/>
     <use xlink:href="#m82b4630cf6" x="216.46446" y="129.031232" style="fill: #1f77b4; stroke: #1f77b4"/>
     <use xlink:href="#m82b4630cf6" x="226.27866" y="123.41571" style="fill: #1f77b4; stroke: #1f77b4"/>
     <use xlink:href="#m82b4630cf6" x="233.361549" y="120.350409" style="fill: #1f77b4; stroke: #1f77b4"/>
     <use xlink:href="#m82b4630cf6" x="243.175749" y="117.676172" style="fill: #1f77b4; stroke: #1f77b4"/>
     <use xlink:href="#m82b4630cf6" x="250.258638" y="113.700923" style="fill: #1f77b4; stroke: #1f77b4"/>
     <use xlink:href="#m82b4630cf6" x="260.119131" y="108.823751" style="fill: #1f77b4; stroke: #1f77b4"/>
     <use xlink:href="#m82b4630cf6" x="267.20202" y="105.118907" style="fill: #1f77b4; stroke: #1f77b4"/>
     <use xlink:href="#m82b4630cf6" x="277.01622" y="100.542892" style="fill: #1f77b4; stroke: #1f77b4"/>
     <use xlink:href="#m82b4630cf6" x="284.099109" y="97.108805" style="fill: #1f77b4; stroke: #1f77b4"/>
     <use xlink:href="#m82b4630cf6" x="293.913309" y="94.933252" style="fill: #1f77b4; stroke: #1f77b4"/>
     <use xlink:href="#m82b4630cf6" x="300.996198" y="92.289138" style="fill: #1f77b4; stroke: #1f77b4"/>
     <use xlink:href="#m82b4630cf6" x="310.810398" y="88.474402" style="fill: #1f77b4; stroke: #1f77b4"/>
     <use xlink:href="#m82b4630cf6" x="317.893287" y="84.610352" style="fill: #1f77b4; stroke: #1f77b4"/>
     <use xlink:href="#m82b4630cf6" x="327.75378" y="78.363311" style="fill: #1f77b4; stroke: #1f77b4"/>
     <use xlink:href="#m82b4630cf6" x="334.836669" y="74.339368" style="fill: #1f77b4; stroke: #1f77b4"/>
     <use xlink:href="#m82b4630cf6" x="344.650869" y="71.357906" style="fill: #1f77b4; stroke: #1f77b4"/>
     <use xlink:href="#m82b4630cf6" x="351.733758" y="68.963314" style="fill: #1f77b4; stroke: #1f77b4"/>
     <use xlink:href="#m82b4630cf6" x="361.547958" y="67.310559" style="fill: #1f77b4; stroke: #1f77b4"/>
     <use xlink:href="#m82b4630cf6" x="368.630847" y="63.931654" style="fill: #1f77b4; stroke: #1f77b4"/>
     <use xlink:href="#m82b4630cf6" x="378.445047" y="60.587532" style="fill: #1f77b4; stroke: #1f77b4"/>
     <use xlink:href="#m82b4630cf6" x="385.527936" y="58.013097" style="fill: #1f77b4; stroke: #1f77b4"/>
     <use xlink:href="#m82b4630cf6" x="395.388429" y="52.264572" style="fill: #1f77b4; stroke: #1f77b4"/>
     <use xlink:href="#m82b4630cf6" x="402.471318" y="49.192191" style="fill: #1f77b4; stroke: #1f77b4"/>
     <use xlink:href="#m82b4630cf6" x="412.285518" y="45.326161" style="fill: #1f77b4; stroke: #1f77b4"/>
     <use xlink:href="#m82b4630cf6" x="419.368407" y="44.095274" style="fill: #1f77b4; stroke: #1f77b4"/>
     <use xlink:href="#m82b4630cf6" x="429.182607" y="43.095865" style="fill: #1f77b4; stroke: #1f77b4"/>
     <use xlink:href="#m82b4630cf6" x="436.265496" y="41.785797" style="fill: #1f77b4; stroke: #1f77b4"/>
     <use xlink:href="#m82b4630cf6" x="446.079696" y="40.082691" style="fill: #1f77b4; stroke: #1f77b4"/>
     <use xlink:href="#m82b4630cf6" x="453.162585" y="38.406113" style="fill: #1f77b4; stroke: #1f77b4"/>
     <use xlink:href="#m82b4630cf6" x="463.023078" y="34.996619" style="fill: #1f77b4; stroke: #1f77b4"/>
     <use xlink:href="#m82b4630cf6" x="470.105968" y="33.104393" style="fill: #1f77b4; stroke: #1f77b4"/>
     <use xlink:href="#m82b4630cf6" x="479.920167" y="31.898564" style="fill: #1f77b4; stroke: #1f77b4"/>
     <use xlink:href="#m82b4630cf6" x="487.003056" y="30.543989" style="fill: #1f77b4; stroke: #1f77b4"/>
     <use xlink:href="#m82b4630cf6" x="496.817256" y="26.553914" style="fill: #1f77b4; stroke: #1f77b4"/>
     <use xlink:href="#m82b4630cf6" x="503.900145" y="24.800633" style="fill: #1f77b4; stroke: #1f77b4"/>
     <use xlink:href="#m82b4630cf6" x="513.714345" y="23.704954" style="fill: #1f77b4; stroke: #1f77b4"/>
     <use xlink:href="#m82b4630cf6" x="520.797234" y="23.091637" style="fill: #1f77b4; stroke: #1f77b4"/>
     <use xlink:href="#m82b4630cf6" x="530.657727" y="19.8" style="fill: #1f77b4; stroke: #1f77b4"/>
    </g>
   </g>
   <g id="line2d_22">
    <path d="M 74.112273 215.990807 
L 81.195162 207.761015 
L 91.009362 206.124441 
L 98.092251 204.208597 
L 107.906451 204.208597 
L 114.98934 204.208597 
L 124.849833 201.285235 
L 131.932722 195.507295 
L 141.746922 183.517351 
L 148.829811 180.979695 
L 158.644011 180.979695 
L 165.7269 180.979695 
L 175.5411 175.792522 
L 182.623989 174.500067 
L 192.484482 174.500067 
L 199.567371 166.277812 
L 209.381571 161.99121 
L 216.46446 161.99121 
L 226.27866 143.954933 
L 233.361549 143.954933 
L 243.175749 143.954933 
L 250.258638 143.954933 
L 260.119131 143.954933 
L 267.20202 136.30885 
L 277.01622 128.880228 
L 284.099109 120.791617 
L 293.913309 120.791617 
L 300.996198 120.791617 
L 310.810398 120.791617 
L 317.893287 114.789433 
L 327.75378 106.194348 
L 334.836669 105.359179 
L 344.650869 105.359179 
L 351.733758 100.124848 
L 361.547958 100.124848 
L 368.630847 95.873402 
L 378.445047 82.845102 
L 385.527936 79.998388 
L 395.388429 75.04041 
L 402.471318 74.199943 
L 412.285518 66.825455 
L 419.368407 66.825455 
L 429.182607 66.825455 
L 436.265496 66.825455 
L 446.079696 66.825455 
L 453.162585 66.825455 
L 463.023078 55.448841 
L 470.105968 55.448841 
L 479.920167 55.448841 
L 487.003056 55.448841 
L 496.817256 52.367009 
L 503.900145 50.567161 
L 513.714345 50.17396 
L 520.797234 50.17396 
L 530.657727 38.596323 
" clip-path="url(#p407537465e)" style="fill: none; stroke: #ff7f0e; stroke-width: 1.5; stroke-linecap: square"/>
    <defs>
     <path id="mdc3ac90765" d="M 0 -3 
L -3 3 
L 3 3 
z
" style="stroke: #ff7f0e; stroke-linejoin: miter"/>
    </defs>
    <g clip-path="url(#p407537465e)">
     <use xlink:href="#mdc3ac90765" x="74.112273" y="215.990807" style="fill: #ff7f0e; stroke: #ff7f0e; stroke-linejoin: miter"/>
     <use xlink:href="#mdc3ac90765" x="81.195162" y="207.761015" style="fill: #ff7f0e; stroke: #ff7f0e; stroke-linejoin: miter"/>
     <use xlink:href="#mdc3ac90765" x="91.009362" y="206.124441" style="fill: #ff7f0e; stroke: #ff7f0e; stroke-linejoin: miter"/>
     <use xlink:href="#mdc3ac90765" x="98.092251" y="204.208597" style="fill: #ff7f0e; stroke: #ff7f0e; stroke-linejoin: miter"/>
     <use xlink:href="#mdc3ac90765" x="107.906451" y="204.208597" style="fill: #ff7f0e; stroke: #ff7f0e; stroke-linejoin: miter"/>
     <use xlink:href="#mdc3ac90765" x="114.98934" y="204.208597" style="fill: #ff7f0e; stroke: #ff7f0e; stroke-linejoin: miter"/>
     <use xlink:href="#mdc3ac90765" x="124.849833" y="201.285235" style="fill: #ff7f0e; stroke: #ff7f0e; stroke-linejoin: miter"/>
     <use xlink:href="#mdc3ac90765" x="131.932722" y="195.507295" style="fill: #ff7f0e; stroke: #ff7f0e; stroke-linejoin: miter"/>
     <use xlink:href="#mdc3ac90765" x="141.746922" y="183.517351" style="fill: #ff7f0e; stroke: #ff7f0e; stroke-linejoin: miter"/>
     <use xlink:href="#mdc3ac90765" x="148.829811" y="180.979695" style="fill: #ff7f0e; stroke: #ff7f0e; stroke-linejoin: miter"/>
     <use xlink:href="#mdc3ac90765" x="158.644011" y="180.979695" style="fill: #ff7f0e; stroke: #ff7f0e; stroke-linejoin: miter"/>
     <use xlink:href="#mdc3ac90765" x="165.7269" y="180.979695" style="fill: #ff7f0e; stroke: #ff7f0e; stroke-linejoin: miter"/>
     <use xlink:href="#mdc3ac90765" x="175.5411" y="175.792522" style="fill: #ff7f0e; stroke: #ff7f0e; stroke-linejoin: miter"/>
     <use xlink:href="#mdc3ac90765" x="182.623989" y="174.500067" style="fill: #ff7f0e; stroke: #ff7f0e; stroke-linejoin: miter"/>
     <use xlink:href="#mdc3ac90765" x="192.484482" y="174.500067" style="fill: #ff7f0e; stroke: #ff7f0e; stroke-linejoin: miter"/>
     <use xlink:href="#mdc3ac90765" x="199.567371" y="166.277812" style="fill: #ff7f0e; stroke: #ff7f0e; stroke-linejoin: miter"/>
     <use xlink:href="#mdc3ac90765" x="209.381571" y="161.99121" style="fill: #ff7f0e; stroke: #ff7f0e; stroke-linejoin: miter"/>
     <use xlink:href="#mdc3ac90765" x="216.46446" y="161.99121" style="fill: #ff7f0e; stroke: #ff7f0e; stroke-linejoin: miter"/>
     <use xlink:href="#mdc3ac90765" x="226.27866" y="143.954933" style="fill: #ff7f0e; stroke: #ff7f0e; stroke-linejoin: miter"/>
     <use xlink:href="#mdc3ac90765" x="233.361549" y="143.954933" style="fill: #ff7f0e; stroke: #ff7f0e; stroke-linejoin: miter"/>
     <use xlink:href="#mdc3ac90765" x="243.175749" y="143.954933" style="fill: #ff7f0e; stroke: #ff7f0e; stroke-linejoin: miter"/>
     <use xlink:href="#mdc3ac90765" x="250.258638" y="143.954933" style="fill: #ff7f0e; stroke: #ff7f0e; stroke-linejoin: miter"/>
     <use xlink:href="#mdc3ac90765" x="260.119131" y="143.954933" style="fill: #ff7f0e; stroke: #ff7f0e; stroke-linejoin: miter"/>
     <use xlink:href="#mdc3ac90765" x="267.20202" y="136.30885" style="fill: #ff7f0e; stroke: #ff7f0e; stroke-linejoin: miter"/>
     <use xlink:href="#mdc3ac90765" x="277.01622" y="128.880228" style="fill: #ff7f0e; stroke: #ff7f0e; stroke-linejoin: miter"/>
     <use xlink:href="#mdc3ac90765" x="284.099109" y="120.791617" style="fill: #ff7f0e; stroke: #ff7f0e; stroke-linejoin: miter"/>
     <use xlink:href="#mdc3ac90765" x="293.913309" y="120.791617" style="fill: #ff7f0e; stroke: #ff7f0e; stroke-linejoin: miter"/>
     <use xlink:href="#mdc3ac90765" x="300.996198" y="120.791617" style="fill: #ff7f0e; stroke: #ff7f0e; stroke-linejoin: miter"/>
     <use xlink:href="#mdc3ac90765" x="310.810398" y="120.791617" style="fill: #ff7f0e; stroke: #ff7f0e; stroke-linejoin: miter"/>
     <use xlink:href="#mdc3ac90765" x="317.893287" y="114.789433" style="fill: #ff7f0e; stroke: #ff7f0e; stroke-linejoin: miter"/>
     <use xlink:href="#mdc3ac90765" x="327.75378" y="106.194348" style="fill: #ff7f0e; stroke: #ff7f0e; stroke-linejoin: miter"/>
     <use xlink:href="#mdc3ac90765" x="334.836669" y="105.359179" style="fill: #ff7f0e; stroke: #ff7f0e; stroke-linejoin: miter"/>
     <use xlink:href="#mdc3ac90765" x="344.650869" y="105.359179" style="fill: #ff7f0e; stroke: #ff7f0e; stroke-linejoin: miter"/>
     <use xlink:href="#mdc3ac90765" x="351.733758" y="100.124848" style="fill: #ff7f0e; stroke: #ff7f0e; stroke-linejoin: miter"/>
     <use xlink:href="#mdc3ac90765" x="361.547958" y="100.124848" style="fill: #ff7f0e; stroke: #ff7f0e; stroke-linejoin: miter"/>
     <use xlink:href="#mdc3ac90765" x="368.630847" y="95.873402" style="fill: #ff7f0e; stroke: #ff7f0e; stroke-linejoin: miter"/>
     <use xlink:href="#mdc3ac90765" x="378.445047" y="82.845102" style="fill: #ff7f0e; stroke: #ff7f0e; stroke-linejoin: miter"/>
     <use xlink:href="#mdc3ac90765" x="385.527936" y="79.998388" style="fill: #ff7f0e; stroke: #ff7f0e; stroke-linejoin: miter"/>
     <use xlink:href="#mdc3ac90765" x="395.388429" y="75.04041" style="fill: #ff7f0e; stroke: #ff7f0e; stroke-linejoin: miter"/>
     <use xlink:href="#mdc3ac90765" x="402.471318" y="74.199943" style="fill: #ff7f0e; stroke: #ff7f0e; stroke-linejoin: miter"/>
     <use xlink:href="#mdc3ac90765" x="412.285518" y="66.825455" style="fill: #ff7f0e; stroke: #ff7f0e; stroke-linejoin: miter"/>
     <use xlink:href="#mdc3ac90765" x="419.368407" y="66.825455" style="fill: #ff7f0e; stroke: #ff7f0e; stroke-linejoin: miter"/>
     <use xlink:href="#mdc3ac90765" x="429.182607" y="66.825455" style="fill: #ff7f0e; stroke: #ff7f0e; stroke-linejoin: miter"/>
     <use xlink:href="#mdc3ac90765" x="436.265496" y="66.825455" style="fill: #ff7f0e; stroke: #ff7f0e; stroke-linejoin: miter"/>
     <use xlink:href="#mdc3ac90765" x="446.079696" y="66.825455" style="fill: #ff7f0e; stroke: #ff7f0e; stroke-linejoin: miter"/>
     <use xlink:href="#mdc3ac90765" x="453.162585" y="66.825455" style="fill: #ff7f0e; stroke: #ff7f0e; stroke-linejoin: miter"/>
     <use xlink:href="#mdc3ac90765" x="463.023078" y="55.448841" style="fill: #ff7f0e; stroke: #ff7f0e; stroke-linejoin: miter"/>
     <use xlink:href="#mdc3ac90765" x="470.105968" y="55.448841" style="fill: #ff7f0e; stroke: #ff7f0e; stroke-linejoin: miter"/>
     <use xlink:href="#mdc3ac90765" x="479.920167" y="55.448841" style="fill: #ff7f0e; stroke: #ff7f0e; stroke-linejoin: miter"/>
     <use xlink:href="#mdc3ac90765" x="487.003056" y="55.448841" style="fill: #ff7f0e; stroke: #ff7f0e; stroke-linejoin: miter"/>
     <use xlink:href="#mdc3ac90765" x="496.817256" y="52.367009" style="fill: #ff7f0e; stroke: #ff7f0e; stroke-linejoin: miter"/>
     <use xlink:href="#mdc3ac90765" x="503.900145" y="50.567161" style="fill: #ff7f0e; stroke: #ff7f0e; stroke-linejoin: miter"/>
     <use xlink:href="#mdc3ac90765" x="513.714345" y="50.17396" style="fill: #ff7f0e; stroke: #ff7f0e; stroke-linejoin: miter"/>
     <use xlink:href="#mdc3ac90765" x="520.797234" y="50.17396" style="fill: #ff7f0e; stroke: #ff7f0e; stroke-linejoin: miter"/>
     <use xlink:href="#mdc3ac90765" x="530.657727" y="38.596323" style="fill: #ff7f0e; stroke: #ff7f0e; stroke-linejoin: miter"/>
    </g>
   </g>
   <g id="line2d_23">
    <path d="M 74.112273 271.8 
L 81.195162 270.533606 
L 91.009362 263.995826 
L 98.092251 260.361706 
L 107.906451 254.456063 
L 114.98934 251.761343 
L 124.849833 248.556282 
L 131.932722 244.801993 
L 141.746922 239.094538 
L 148.829811 236.673536 
L 158.644011 232.821094 
L 165.7269 230.054305 
L 175.5411 225.927237 
L 182.623989 222.634779 
L 192.484482 219.472573 
L 199.567371 216.85279 
L 209.381571 214.561639 
L 216.46446 210.843745 
L 226.27866 206.862605 
L 233.361549 202.617747 
L 243.175749 200.260536 
L 250.258638 195.193685 
L 260.119131 189.880725 
L 267.20202 186.220842 
L 277.01622 182.528904 
L 284.099109 178.649187 
L 293.913309 176.308459 
L 300.996198 172.922161 
L 310.810398 168.562788 
L 317.893287 164.202779 
L 327.75378 159.52344 
L 334.836669 155.736865 
L 344.650869 152.286168 
L 351.733758 150.48964 
L 361.547958 148.166204 
L 368.630847 145.549571 
L 378.445047 142.67221 
L 385.527936 140.002407 
L 395.388429 138.006009 
L 402.471318 135.43742 
L 412.285518 132.792354 
L 419.368407 130.545476 
L 429.182607 129.092175 
L 436.265496 127.593833 
L 446.079696 126.784286 
L 453.162585 124.249428 
L 463.023078 120.567569 
L 470.105968 118.290475 
L 479.920167 115.899561 
L 487.003056 113.241633 
L 496.817256 110.251771 
L 503.900145 107.989351 
L 513.714345 106.24935 
L 520.797234 104.988354 
L 530.657727 104.170883 
" clip-path="url(#p407537465e)" style="fill: none; stroke: #2ca02c; stroke-width: 1.5; stroke-linecap: square"/>
    <defs>
     <path id="meff2b8f844" d="M -3 3 
L 3 3 
L 3 -3 
L -3 -3 
z
" style="stroke: #2ca02c; stroke-linejoin: miter"/>
    </defs>
    <g clip-path="url(#p407537465e)">
     <use xlink:href="#meff2b8f844" x="74.112273" y="271.8" style="fill: #2ca02c; stroke: #2ca02c; stroke-linejoin: miter"/>
     <use xlink:href="#meff2b8f844" x="81.195162" y="270.533606" style="fill: #2ca02c; stroke: #2ca02c; stroke-linejoin: miter"/>
     <use xlink:href="#meff2b8f844" x="91.009362" y="263.995826" style="fill: #2ca02c; stroke: #2ca02c; stroke-linejoin: miter"/>
     <use xlink:href="#meff2b8f844" x="98.092251" y="260.361706" style="fill: #2ca02c; stroke: #2ca02c; stroke-linejoin: miter"/>
     <use xlink:href="#meff2b8f844" x="107.906451" y="254.456063" style="fill: #2ca02c; stroke: #2ca02c; stroke-linejoin: miter"/>
     <use xlink:href="#meff2b8f844" x="114.98934" y="251.761343" style="fill: #2ca02c; stroke: #2ca02c; stroke-linejoin: miter"/>
     <use xlink:href="#meff2b8f844" x="124.849833" y="248.556282" style="fill: #2ca02c; stroke: #2ca02c; stroke-linejoin: miter"/>
     <use xlink:href="#meff2b8f844" x="131.932722" y="244.801993" style="fill: #2ca02c; stroke: #2ca02c; stroke-linejoin: miter"/>
     <use xlink:href="#meff2b8f844" x="141.746922" y="239.094538" style="fill: #2ca02c; stroke: #2ca02c; stroke-linejoin: miter"/>
     <use xlink:href="#meff2b8f844" x="148.829811" y="236.673536" style="fill: #2ca02c; stroke: #2ca02c; stroke-linejoin: miter"/>
     <use xlink:href="#meff2b8f844" x="158.644011" y="232.821094" style="fill: #2ca02c; stroke: #2ca02c; stroke-linejoin: miter"/>
     <use xlink:href="#meff2b8f844" x="165.7269" y="230.054305" style="fill: #2ca02c; stroke: #2ca02c; stroke-linejoin: miter"/>
     <use xlink:href="#meff2b8f844" x="175.5411" y="225.927237" style="fill: #2ca02c; stroke: #2ca02c; stroke-linejoin: miter"/>
     <use xlink:href="#meff2b8f844" x="182.623989" y="222.634779" style="fill: #2ca02c; stroke: #2ca02c; stroke-linejoin: miter"/>
     <use xlink:href="#meff2b8f844" x="192.484482" y="219.472573" style="fill: #2ca02c; stroke: #2ca02c; stroke-linejoin: miter"/>
     <use xlink:href="#meff2b8f844" x="199.567371" y="216.85279" style="fill: #2ca02c; stroke: #2ca02c; stroke-linejoin: miter"/>
     <use xlink:href="#meff2b8f844" x="209.381571" y="214.561639" style="fill: #2ca02c; stroke: #2ca02c; stroke-linejoin: miter"/>
     <use xlink:href="#meff2b8f844" x="216.46446" y="210.843745" style="fill: #2ca02c; stroke: #2ca02c; stroke-linejoin: miter"/>
     <use xlink:href="#meff2b8f844" x="226.27866" y="206.862605" style="fill: #2ca02c; stroke: #2ca02c; stroke-linejoin: miter"/>
     <use xlink:href="#meff2b8f844" x="233.361549" y="202.617747" style="fill: #2ca02c; stroke: #2ca02c; stroke-linejoin: miter"/>
     <use xlink:href="#meff2b8f844" x="243.175749" y="200.260536" style="fill: #2ca02c; stroke: #2ca02c; stroke-linejoin: miter"/>
     <use xlink:href="#meff2b8f844" x="250.258638" y="195.193685" style="fill: #2ca02c; stroke: #2ca02c; stroke-linejoin: miter"/>
     <use xlink:href="#meff2b8f844" x="260.119131" y="189.880725" style="fill: #2ca02c; stroke: #2ca02c; stroke-linejoin: miter"/>
     <use xlink:href="#meff2b8f844" x="267.20202" y="186.220842" style="fill: #2ca02c; stroke: #2ca02c; stroke-linejoin: miter"/>
     <use xlink:href="#meff2b8f844" x="277.01622" y="182.528904" style="fill: #2ca02c; stroke: #2ca02c; stroke-linejoin: miter"/>
     <use xlink:href="#meff2b8f844" x="284.099109" y="178.649187" style="fill: #2ca02c; stroke: #2ca02c; stroke-linejoin: miter"/>
     <use xlink:href="#meff2b8f844" x="293.913309" y="176.308459" style="fill: #2ca02c; stroke: #2ca02c; stroke-linejoin: miter"/>
     <use xlink:href="#meff2b8f844" x="300.996198" y="172.922161" style="fill: #2ca02c; stroke: #2ca02c; stroke-linejoin: miter"/>
     <use xlink:href="#meff2b8f844" x="310.810398" y="168.562788" style="fill: #2ca02c; stroke: #2ca02c; stroke-linejoin: miter"/>
     <use xlink:href="#meff2b8f844" x="317.893287" y="164.202779" style="fill: #2ca02c; stroke: #2ca02c; stroke-linejoin: miter"/>
     <use xlink:href="#meff2b8f844" x="327.75378" y="159.52344" style="fill: #2ca02c; stroke: #2ca02c; stroke-linejoin: miter"/>
     <use xlink:href="#meff2b8f844" x="334.836669" y="155.736865" style="fill: #2ca02c; stroke: #2ca02c; stroke-linejoin: miter"/>
     <use xlink:href="#meff2b8f844" x="344.650869" y="152.286168" style="fill: #2ca02c; stroke: #2ca02c; stroke-linejoin: miter"/>
     <use xlink:href="#meff2b8f844" x="351.733758" y="150.48964" style="fill: #2ca02c; stroke: #2ca02c; stroke-linejoin: miter"/>
     <use xlink:href="#meff2b8f844" x="361.547958" y="148.166204" style="fill: #2ca02c; stroke: #2ca02c; stroke-linejoin: miter"/>
     <use xlink:href="#meff2b8f844" x="368.630847" y="145.549571" style="fill: #2ca02c; stroke: #2ca02c; stroke-linejoin: miter"/>
     <use xlink:href="#meff2b8f844" x="378.445047" y="142.67221" style="fill: #2ca02c; stroke: #2ca02c; stroke-linejoin: miter"/>
     <use xlink:href="#meff2b8f844" x="385.527936" y="140.002407" style="fill: #2ca02c; stroke: #2ca02c; stroke-linejoin: miter"/>
     <use xlink:href="#meff2b8f844" x="395.388429" y="138.006009" style="fill: #2ca02c; stroke: #2ca02c; stroke-linejoin: miter"/>
     <use xlink:href="#meff2b8f844" x="402.471318" y="135.43742" style="fill: #2ca02c; stroke: #2ca02c; stroke-linejoin: miter"/>
     <use xlink:href="#meff2b8f844" x="412.285518" y="132.792354" style="fill: #2ca02c; stroke: #2ca02c; stroke-linejoin: miter"/>
     <use xlink:href="#meff2b8f844" x="419.368407" y="130.545476" style="fill: #2ca02c; stroke: #2ca02c; stroke-linejoin: miter"/>
     <use xlink:href="#meff2b8f844" x="429.182607" y="129.092175" style="fill: #2ca02c; stroke: #2ca02c; stroke-linejoin: miter"/>
     <use xlink:href="#meff2b8f844" x="436.265496" y="127.593833" style="fill: #2ca02c; stroke: #2ca02c; stroke-linejoin: miter"/>
     <use xlink:href="#meff2b8f844" x="446.079696" y="126.784286" style="fill: #2ca02c; stroke: #2ca02c; stroke-linejoin: miter"/>
     <use xlink:href="#meff2b8f844" x="453.162585" y="124.249428" style="fill: #2ca02c; stroke: #2ca02c; stroke-linejoin: miter"/>
     <use xlink:href="#meff2b8f844" x="463.023078" y="120.567569" style="fill: #2ca02c; stroke: #2ca02c; stroke-linejoin: miter"/>
     <use xlink:href="#meff2b8f844" x="470.105968" y="118.290475" style="fill: #2ca02c; stroke: #2ca02c; stroke-linejoin: miter"/>
     <use xlink:href="#meff2b8f844" x="479.920167" y="115.899561" style="fill: #2ca02c; stroke: #2ca02c; stroke-linejoin: miter"/>
     <use xlink:href="#meff2b8f844" x="487.003056" y="113.241633" style="fill: #2ca02c; stroke: #2ca02c; stroke-linejoin: miter"/>
     <use xlink:href="#meff2b8f844" x="496.817256" y="110.251771" style="fill: #2ca02c; stroke: #2ca02c; stroke-linejoin: miter"/>
     <use xlink:href="#meff2b8f844" x="503.900145" y="107.989351" style="fill: #2ca02c; stroke: #2ca02c; stroke-linejoin: miter"/>
     <use xlink:href="#meff2b8f844" x="513.714345" y="106.24935" style="fill: #2ca02c; stroke: #2ca02c; stroke-linejoin: miter"/>
     <use xlink:href="#meff2b8f844" x="520.797234" y="104.988354" style="fill: #2ca02c; stroke: #2ca02c; stroke-linejoin: miter"/>
     <use xlink:href="#meff2b8f844" x="530.657727" y="104.170883" style="fill: #2ca02c; stroke: #2ca02c; stroke-linejoin: miter"/>
    </g>
   </g>
   <g id="patch_2">
    <path d="M 51.285 284.4 
L 51.285 7.2 
" style="fill: none; stroke: #000000; stroke-width: 0.8; stroke-linejoin: miter; stroke-linecap: square"/>
   </g>
   <g id="patch_3">
    <path d="M 553.485 284.4 
L 553.485 7.2 
" style="fill: none; stroke: #000000; stroke-width: 0.8; stroke-linejoin: miter; stroke-linecap: square"/>
   </g>
   <g id="patch_4">
    <path d="M 51.285 284.4 
L 553.485 284.4 
" style="fill: none; stroke: #000000; stroke-width: 0.8; stroke-linejoin: miter; stroke-linecap: square"/>
   </g>
   <g id="patch_5">
    <path d="M 51.285 7.2 
L 553.485 7.2 
" style="fill: none; stroke: #000000; stroke-width: 0.8; stroke-linejoin: miter; stroke-linecap: square"/>
   </g>
   <g id="legend_1">
    <g id="patch_6">
     <path d="M 62.485 90.455 
L 157.6325 90.455 
Q 160.8325 90.455 160.8325 87.255 
L 160.8325 18.4 
Q 160.8325 15.2 157.6325 15.2 
L 62.485 15.2 
Q 59.285 15.2 59.285 18.4 
L 59.285 87.255 
Q 59.285 90.455 62.485 90.455 
z
" style="fill: #ffffff; opacity: 0.8; stroke: #cccccc; stroke-linejoin: miter"/>
    </g>
    <g id="line2d_24">
     <path d="M 65.685 28.1575 
L 81.685 28.1575 
L 97.685 28.1575 
" style="fill: none; stroke: #1f77b4; stroke-width: 1.5; stroke-linecap: square"/>
     <g>
      <use xlink:href="#m82b4630cf6" x="81.685" y="28.1575" style="fill: #1f77b4; stroke: #1f77b4"/>
     </g>
    </g>
    <g id="text_23">
     <!-- Sum -->
     <g transform="translate(110.485 33.7575)scale(0.16 -0.16)">
      <defs>
       <path id="DejaVuSans-53" d="M 3425 4513 
L 3425 3897 
Q 3066 4069 2747 4153 
Q 2428 4238 2131 4238 
Q 1616 4238 1336 4038 
Q 1056 3838 1056 3469 
Q 1056 3159 1242 3001 
Q 1428 2844 1947 2747 
L 2328 2669 
Q 3034 2534 3370 2195 
Q 3706 1856 3706 1288 
Q 3706 609 3251 259 
Q 2797 -91 1919 -91 
Q 1588 -91 1214 -16 
Q 841 59 441 206 
L 441 856 
Q 825 641 1194 531 
Q 1563 422 1919 422 
Q 2459 422 2753 634 
Q 3047 847 3047 1241 
Q 3047 1584 2836 1778 
Q 2625 1972 2144 2069 
L 1759 2144 
Q 1053 2284 737 2584 
Q 422 2884 422 3419 
Q 422 4038 858 4394 
Q 1294 4750 2059 4750 
Q 2388 4750 2728 4690 
Q 3069 4631 3425 4513 
z
" transform="scale(0.015625)"/>
       <path id="DejaVuSans-75" d="M 544 1381 
L 544 3500 
L 1119 3500 
L 1119 1403 
Q 1119 906 1312 657 
Q 1506 409 1894 409 
Q 2359 409 2629 706 
Q 2900 1003 2900 1516 
L 2900 3500 
L 3475 3500 
L 3475 0 
L 2900 0 
L 2900 538 
Q 2691 219 2414 64 
Q 2138 -91 1772 -91 
Q 1169 -91 856 284 
Q 544 659 544 1381 
z
M 1991 3584 
L 1991 3584 
z
" transform="scale(0.015625)"/>
      </defs>
      <use xlink:href="#DejaVuSans-53"/>
      <use xlink:href="#DejaVuSans-75" x="63.476562"/>
      <use xlink:href="#DejaVuSans-6d" x="126.855469"/>
     </g>
    </g>
    <g id="line2d_25">
     <path d="M 65.685 51.6425 
L 81.685 51.6425 
L 97.685 51.6425 
" style="fill: none; stroke: #ff7f0e; stroke-width: 1.5; stroke-linecap: square"/>
     <g>
      <use xlink:href="#mdc3ac90765" x="81.685" y="51.6425" style="fill: #ff7f0e; stroke: #ff7f0e; stroke-linejoin: miter"/>
     </g>
    </g>
    <g id="text_24">
     <!-- #1 -->
     <g transform="translate(110.485 57.2425)scale(0.16 -0.16)">
      <defs>
       <path id="DejaVuSans-23" d="M 3272 2816 
L 2363 2816 
L 2100 1772 
L 3016 1772 
L 3272 2816 
z
M 2803 4594 
L 2478 3297 
L 3391 3297 
L 3719 4594 
L 4219 4594 
L 3897 3297 
L 4872 3297 
L 4872 2816 
L 3775 2816 
L 3519 1772 
L 4513 1772 
L 4513 1294 
L 3397 1294 
L 3072 0 
L 2572 0 
L 2894 1294 
L 1978 1294 
L 1656 0 
L 1153 0 
L 1478 1294 
L 494 1294 
L 494 1772 
L 1594 1772 
L 1856 2816 
L 850 2816 
L 850 3297 
L 1978 3297 
L 2297 4594 
L 2803 4594 
z
" transform="scale(0.015625)"/>
      </defs>
      <use xlink:href="#DejaVuSans-23"/>
      <use xlink:href="#DejaVuSans-31" x="83.789062"/>
     </g>
    </g>
    <g id="line2d_26">
     <path d="M 65.685 75.1275 
L 81.685 75.1275 
L 97.685 75.1275 
" style="fill: none; stroke: #2ca02c; stroke-width: 1.5; stroke-linecap: square"/>
     <g>
      <use xlink:href="#meff2b8f844" x="81.685" y="75.1275" style="fill: #2ca02c; stroke: #2ca02c; stroke-linejoin: miter"/>
     </g>
    </g>
    <g id="text_25">
     <!-- #500 -->
     <g transform="translate(110.485 80.7275)scale(0.16 -0.16)">
      <use xlink:href="#DejaVuSans-23"/>
      <use xlink:href="#DejaVuSans-35" x="83.789062"/>
      <use xlink:href="#DejaVuSans-30" x="147.412109"/>
      <use xlink:href="#DejaVuSans-30" x="211.035156"/>
     </g>
    </g>
   </g>
  </g>
 </g>
 <defs>
  <clipPath id="p407537465e">
   <rect x="51.285" y="7.2" width="502.2" height="277.2"/>
  </clipPath>
 </defs>
</svg>
