<!DOCTYPE svg PUBLIC "-//W3C//DTD SVG 1.1//EN" "http://www.w3.org/Graphics/SVG/1.1/DTD/svg11.dtd">
<svg xmlns="http://www.w3.org/2000/svg" xmlns:xlink="http://www.w3.org/1999/xlink" version="1.1" width="213px" height="243px" viewBox="-0.5 -0.5 213 243"><defs/><g><path d="M 39.24 31 L 52.76 31" fill="none" stroke="rgba(0, 0, 0, 1)" stroke-width="2" stroke-miterlimit="10" pointer-events="stroke"/><path d="M 33.24 31 L 41.24 27 L 39.24 31 L 41.24 35 Z" fill="rgba(0, 0, 0, 1)" stroke="rgba(0, 0, 0, 1)" stroke-width="2" stroke-miterlimit="10" pointer-events="all"/><path d="M 58.76 31 L 50.76 35 L 52.76 31 L 50.76 27 Z" fill="rgba(0, 0, 0, 1)" stroke="rgba(0, 0, 0, 1)" stroke-width="2" stroke-miterlimit="10" pointer-events="all"/><path d="M 16 69.24 L 16 82.76" fill="none" stroke="rgba(0, 0, 0, 1)" stroke-width="2" stroke-miterlimit="10" pointer-events="stroke"/><path d="M 16 63.24 L 20 71.24 L 16 69.24 L 12 71.24 Z" fill="rgba(0, 0, 0, 1)" stroke="rgba(0, 0, 0, 1)" stroke-width="2" stroke-miterlimit="10" pointer-events="all"/><path d="M 16 88.76 L 12 80.76 L 16 82.76 L 20 80.76 Z" fill="rgba(0, 0, 0, 1)" stroke="rgba(0, 0, 0, 1)" stroke-width="2" stroke-miterlimit="10" pointer-events="all"/><path d="M 99.24 31 L 112.76 31" fill="none" stroke="rgba(0, 0, 0, 1)" stroke-width="2" stroke-miterlimit="10" pointer-events="stroke"/><path d="M 93.24 31 L 101.24 27 L 99.24 31 L 101.24 35 Z" fill="rgba(0, 0, 0, 1)" stroke="rgba(0, 0, 0, 1)" stroke-width="2" stroke-miterlimit="10" pointer-events="all"/><path d="M 118.76 31 L 110.76 35 L 112.76 31 L 110.76 27 Z" fill="rgba(0, 0, 0, 1)" stroke="rgba(0, 0, 0, 1)" stroke-width="2" stroke-miterlimit="10" pointer-events="all"/><path d="M 76 69.24 L 76 82.76" fill="none" stroke="rgba(0, 0, 0, 1)" stroke-width="2" stroke-miterlimit="10" pointer-events="stroke"/><path d="M 76 63.24 L 80 71.24 L 76 69.24 L 72 71.24 Z" fill="rgba(0, 0, 0, 1)" stroke="rgba(0, 0, 0, 1)" stroke-width="2" stroke-miterlimit="10" pointer-events="all"/><path d="M 76 88.76 L 72 80.76 L 76 82.76 L 80 80.76 Z" fill="rgba(0, 0, 0, 1)" stroke="rgba(0, 0, 0, 1)" stroke-width="2" stroke-miterlimit="10" pointer-events="all"/><rect x="61" y="1" width="30" height="60" rx="2" ry="2" fill="#cccccc" stroke="#6881b3" stroke-width="2" pointer-events="all"/><path d="M 61 11 L 91 11 M 61 31 L 91 31" fill="none" stroke="#6881b3" stroke-width="2" stroke-miterlimit="10" pointer-events="all"/><ellipse cx="66" cy="36" rx="2" ry="2" fill="#ffffff" stroke="none" pointer-events="all"/><path d="M 136 69.24 L 136 81 L 136 71 L 136 82.76" fill="none" stroke="rgba(0, 0, 0, 1)" stroke-width="2" stroke-miterlimit="10" pointer-events="stroke"/><path d="M 136 63.24 L 140 71.24 L 136 69.24 L 132 71.24 Z" fill="rgba(0, 0, 0, 1)" stroke="rgba(0, 0, 0, 1)" stroke-width="2" stroke-miterlimit="10" pointer-events="all"/><path d="M 136 88.76 L 132 80.76 L 136 82.76 L 140 80.76 Z" fill="rgba(0, 0, 0, 1)" stroke="rgba(0, 0, 0, 1)" stroke-width="2" stroke-miterlimit="10" pointer-events="all"/><path d="M 159.24 31 L 172.76 31" fill="none" stroke="rgba(0, 0, 0, 1)" stroke-width="2" stroke-miterlimit="10" pointer-events="stroke"/><path d="M 153.24 31 L 161.24 27 L 159.24 31 L 161.24 35 Z" fill="rgba(0, 0, 0, 1)" stroke="rgba(0, 0, 0, 1)" stroke-width="2" stroke-miterlimit="10" pointer-events="all"/><path d="M 178.76 31 L 170.76 35 L 172.76 31 L 170.76 27 Z" fill="rgba(0, 0, 0, 1)" stroke="rgba(0, 0, 0, 1)" stroke-width="2" stroke-miterlimit="10" pointer-events="all"/><rect x="121" y="1" width="30" height="60" rx="2" ry="2" fill="#cccccc" stroke="#6881b3" stroke-width="2" pointer-events="all"/><path d="M 121 11 L 151 11 M 121 31 L 151 31" fill="none" stroke="#6881b3" stroke-width="2" stroke-miterlimit="10" pointer-events="all"/><ellipse cx="126" cy="36" rx="2" ry="2" fill="#ffffff" stroke="none" pointer-events="all"/><path d="M 196 69.24 L 196 82.76" fill="none" stroke="rgba(0, 0, 0, 1)" stroke-width="2" stroke-miterlimit="10" pointer-events="stroke"/><path d="M 196 63.24 L 200 71.24 L 196 69.24 L 192 71.24 Z" fill="rgba(0, 0, 0, 1)" stroke="rgba(0, 0, 0, 1)" stroke-width="2" stroke-miterlimit="10" pointer-events="all"/><path d="M 196 88.76 L 192 80.76 L 196 82.76 L 200 80.76 Z" fill="rgba(0, 0, 0, 1)" stroke="rgba(0, 0, 0, 1)" stroke-width="2" stroke-miterlimit="10" pointer-events="all"/><rect x="181" y="1" width="30" height="60" rx="2" ry="2" fill="#cccccc" stroke="#6881b3" stroke-width="2" pointer-events="all"/><path d="M 181 11 L 211 11 M 181 31 L 211 31" fill="none" stroke="#6881b3" stroke-width="2" stroke-miterlimit="10" pointer-events="all"/><ellipse cx="186" cy="36" rx="2" ry="2" fill="#ffffff" stroke="none" pointer-events="all"/><path d="M 39.24 121 L 51 121 L 41 121 L 52.76 121" fill="none" stroke="rgba(0, 0, 0, 1)" stroke-width="2" stroke-miterlimit="10" pointer-events="stroke"/><path d="M 33.24 121 L 41.24 117 L 39.24 121 L 41.24 125 Z" fill="rgba(0, 0, 0, 1)" stroke="rgba(0, 0, 0, 1)" stroke-width="2" stroke-miterlimit="10" pointer-events="all"/><path d="M 58.76 121 L 50.76 125 L 52.76 121 L 50.76 117 Z" fill="rgba(0, 0, 0, 1)" stroke="rgba(0, 0, 0, 1)" stroke-width="2" stroke-miterlimit="10" pointer-events="all"/><path d="M 16 159.24 L 16 171 L 16 161 L 16 172.76" fill="none" stroke="rgba(0, 0, 0, 1)" stroke-width="2" stroke-miterlimit="10" pointer-events="stroke"/><path d="M 16 153.24 L 20 161.24 L 16 159.24 L 12 161.24 Z" fill="rgba(0, 0, 0, 1)" stroke="rgba(0, 0, 0, 1)" stroke-width="2" stroke-miterlimit="10" pointer-events="all"/><path d="M 16 178.76 L 12 170.76 L 16 172.76 L 20 170.76 Z" fill="rgba(0, 0, 0, 1)" stroke="rgba(0, 0, 0, 1)" stroke-width="2" stroke-miterlimit="10" pointer-events="all"/><rect x="1" y="91" width="30" height="60" rx="2" ry="2" fill="#cccccc" stroke="#6881b3" stroke-width="2" pointer-events="all"/><path d="M 1 101 L 31 101 M 1 121 L 31 121" fill="none" stroke="#6881b3" stroke-width="2" stroke-miterlimit="10" pointer-events="all"/><ellipse cx="6" cy="126" rx="2" ry="2" fill="#ffffff" stroke="none" pointer-events="all"/><path d="M 99.24 121 L 112.76 121" fill="none" stroke="rgba(0, 0, 0, 1)" stroke-width="2" stroke-miterlimit="10" pointer-events="stroke"/><path d="M 93.24 121 L 101.24 117 L 99.24 121 L 101.24 125 Z" fill="rgba(0, 0, 0, 1)" stroke="rgba(0, 0, 0, 1)" stroke-width="2" stroke-miterlimit="10" pointer-events="all"/><path d="M 118.76 121 L 110.76 125 L 112.76 121 L 110.76 117 Z" fill="rgba(0, 0, 0, 1)" stroke="rgba(0, 0, 0, 1)" stroke-width="2" stroke-miterlimit="10" pointer-events="all"/><path d="M 76 159.24 L 76 171 L 76 161 L 76 172.76" fill="none" stroke="rgba(0, 0, 0, 1)" stroke-width="2" stroke-miterlimit="10" pointer-events="stroke"/><path d="M 76 153.24 L 80 161.24 L 76 159.24 L 72 161.24 Z" fill="rgba(0, 0, 0, 1)" stroke="rgba(0, 0, 0, 1)" stroke-width="2" stroke-miterlimit="10" pointer-events="all"/><path d="M 76 178.76 L 72 170.76 L 76 172.76 L 80 170.76 Z" fill="rgba(0, 0, 0, 1)" stroke="rgba(0, 0, 0, 1)" stroke-width="2" stroke-miterlimit="10" pointer-events="all"/><rect x="61" y="91" width="30" height="60" rx="2" ry="2" fill="#cccccc" stroke="#6881b3" stroke-width="2" pointer-events="all"/><path d="M 61 101 L 91 101 M 61 121 L 91 121" fill="none" stroke="#6881b3" stroke-width="2" stroke-miterlimit="10" pointer-events="all"/><ellipse cx="66" cy="126" rx="2" ry="2" fill="#ffffff" stroke="none" pointer-events="all"/><path d="M 159.24 121 L 172.76 121" fill="none" stroke="rgba(0, 0, 0, 1)" stroke-width="2" stroke-miterlimit="10" pointer-events="stroke"/><path d="M 153.24 121 L 161.24 117 L 159.24 121 L 161.24 125 Z" fill="rgba(0, 0, 0, 1)" stroke="rgba(0, 0, 0, 1)" stroke-width="2" stroke-miterlimit="10" pointer-events="all"/><path d="M 178.76 121 L 170.76 125 L 172.76 121 L 170.76 117 Z" fill="rgba(0, 0, 0, 1)" stroke="rgba(0, 0, 0, 1)" stroke-width="2" stroke-miterlimit="10" pointer-events="all"/><rect x="121" y="91" width="30" height="60" rx="2" ry="2" fill="#cccccc" stroke="#6881b3" stroke-width="2" pointer-events="all"/><path d="M 121 101 L 151 101 M 121 121 L 151 121" fill="none" stroke="#6881b3" stroke-width="2" stroke-miterlimit="10" pointer-events="all"/><ellipse cx="126" cy="126" rx="2" ry="2" fill="#ffffff" stroke="none" pointer-events="all"/><rect x="181" y="91" width="30" height="60" rx="2" ry="2" fill="#cccccc" stroke="#6881b3" stroke-width="2" pointer-events="all"/><path d="M 181 101 L 211 101 M 181 121 L 211 121" fill="none" stroke="#6881b3" stroke-width="2" stroke-miterlimit="10" pointer-events="all"/><ellipse cx="186" cy="126" rx="2" ry="2" fill="#ffffff" stroke="none" pointer-events="all"/><path d="M 39.24 211 L 51 211 L 41 211 L 52.76 211" fill="none" stroke="rgba(0, 0, 0, 1)" stroke-width="2" stroke-miterlimit="10" pointer-events="stroke"/><path d="M 33.24 211 L 41.24 207 L 39.24 211 L 41.24 215 Z" fill="rgba(0, 0, 0, 1)" stroke="rgba(0, 0, 0, 1)" stroke-width="2" stroke-miterlimit="10" pointer-events="all"/><path d="M 58.76 211 L 50.76 215 L 52.76 211 L 50.76 207 Z" fill="rgba(0, 0, 0, 1)" stroke="rgba(0, 0, 0, 1)" stroke-width="2" stroke-miterlimit="10" pointer-events="all"/><rect x="1" y="181" width="30" height="60" rx="2" ry="2" fill="#cccccc" stroke="#6881b3" stroke-width="2" pointer-events="all"/><path d="M 1 191 L 31 191 M 1 211 L 31 211" fill="none" stroke="#6881b3" stroke-width="2" stroke-miterlimit="10" pointer-events="all"/><ellipse cx="6" cy="216" rx="2" ry="2" fill="#ffffff" stroke="none" pointer-events="all"/><path d="M 99.24 211 L 112.76 211" fill="none" stroke="rgba(0, 0, 0, 1)" stroke-width="2" stroke-miterlimit="10" pointer-events="stroke"/><path d="M 93.24 211 L 101.24 207 L 99.24 211 L 101.24 215 Z" fill="rgba(0, 0, 0, 1)" stroke="rgba(0, 0, 0, 1)" stroke-width="2" stroke-miterlimit="10" pointer-events="all"/><path d="M 118.76 211 L 110.76 215 L 112.76 211 L 110.76 207 Z" fill="rgba(0, 0, 0, 1)" stroke="rgba(0, 0, 0, 1)" stroke-width="2" stroke-miterlimit="10" pointer-events="all"/><rect x="61" y="181" width="30" height="60" rx="2" ry="2" fill="#cccccc" stroke="#6881b3" stroke-width="2" pointer-events="all"/><path d="M 61 191 L 91 191 M 61 211 L 91 211" fill="none" stroke="#6881b3" stroke-width="2" stroke-miterlimit="10" pointer-events="all"/><ellipse cx="66" cy="216" rx="2" ry="2" fill="#ffffff" stroke="none" pointer-events="all"/><path d="M 159.24 211 L 171 211 L 161 211 L 172.76 211" fill="none" stroke="rgba(0, 0, 0, 1)" stroke-width="2" stroke-miterlimit="10" pointer-events="stroke"/><path d="M 153.24 211 L 161.24 207 L 159.24 211 L 161.24 215 Z" fill="rgba(0, 0, 0, 1)" stroke="rgba(0, 0, 0, 1)" stroke-width="2" stroke-miterlimit="10" pointer-events="all"/><path d="M 178.76 211 L 170.76 215 L 172.76 211 L 170.76 207 Z" fill="rgba(0, 0, 0, 1)" stroke="rgba(0, 0, 0, 1)" stroke-width="2" stroke-miterlimit="10" pointer-events="all"/><path d="M 136 172.76 L 136 161 L 136 171 L 136 159.24" fill="none" stroke="rgba(0, 0, 0, 1)" stroke-width="2" stroke-miterlimit="10" pointer-events="stroke"/><path d="M 136 178.76 L 132 170.76 L 136 172.76 L 140 170.76 Z" fill="rgba(0, 0, 0, 1)" stroke="rgba(0, 0, 0, 1)" stroke-width="2" stroke-miterlimit="10" pointer-events="all"/><path d="M 136 153.24 L 140 161.24 L 136 159.24 L 132 161.24 Z" fill="rgba(0, 0, 0, 1)" stroke="rgba(0, 0, 0, 1)" stroke-width="2" stroke-miterlimit="10" pointer-events="all"/><rect x="121" y="181" width="30" height="60" rx="2" ry="2" fill="#cccccc" stroke="#6881b3" stroke-width="2" pointer-events="all"/><path d="M 121 191 L 151 191 M 121 211 L 151 211" fill="none" stroke="#6881b3" stroke-width="2" stroke-miterlimit="10" pointer-events="all"/><ellipse cx="126" cy="216" rx="2" ry="2" fill="#ffffff" stroke="none" pointer-events="all"/><path d="M 196 172.76 L 196 159.24" fill="none" stroke="rgba(0, 0, 0, 1)" stroke-width="2" stroke-miterlimit="10" pointer-events="stroke"/><path d="M 196 178.76 L 192 170.76 L 196 172.76 L 200 170.76 Z" fill="rgba(0, 0, 0, 1)" stroke="rgba(0, 0, 0, 1)" stroke-width="2" stroke-miterlimit="10" pointer-events="all"/><path d="M 196 153.24 L 200 161.24 L 196 159.24 L 192 161.24 Z" fill="rgba(0, 0, 0, 1)" stroke="rgba(0, 0, 0, 1)" stroke-width="2" stroke-miterlimit="10" pointer-events="all"/><rect x="181" y="181" width="30" height="60" rx="2" ry="2" fill="#cccccc" stroke="#6881b3" stroke-width="2" pointer-events="all"/><path d="M 181 191 L 211 191 M 181 211 L 211 211" fill="none" stroke="#6881b3" stroke-width="2" stroke-miterlimit="10" pointer-events="all"/><ellipse cx="186" cy="216" rx="2" ry="2" fill="#ffffff" stroke="none" pointer-events="all"/><rect x="1" y="1" width="30" height="60" rx="2" ry="2" fill="#cccccc" stroke="#6881b3" stroke-width="2" pointer-events="all"/><path d="M 1 11 L 31 11 M 1 31 L 31 31" fill="none" stroke="#6881b3" stroke-width="2" stroke-miterlimit="10" pointer-events="all"/><ellipse cx="6" cy="36" rx="2" ry="2" fill="#ffffff" stroke="none" pointer-events="all"/></g></svg>