<!DOCTYPE svg PUBLIC "-//W3C//DTD SVG 1.1//EN" "http://www.w3.org/Graphics/SVG/1.1/DTD/svg11.dtd">
<svg xmlns="http://www.w3.org/2000/svg" xmlns:xlink="http://www.w3.org/1999/xlink" version="1.1" width="242px" height="102px" viewBox="-0.5 -0.5 242 102"><defs/><g><rect x="0" y="0" width="40" height="20" fill="#ffe6cc" stroke="#d79b00" pointer-events="all"/><rect x="40" y="0" width="40" height="20" fill="#ffe6cc" stroke="#d79b00" pointer-events="all"/><rect x="80" y="0" width="40" height="20" fill="#ffe6cc" stroke="#d79b00" pointer-events="all"/><rect x="120" y="0" width="40" height="20" fill="#ffe6cc" stroke="#d79b00" pointer-events="all"/><rect x="160" y="0" width="40" height="20" fill="#ffe6cc" stroke="#d79b00" pointer-events="all"/><rect x="200" y="0" width="40" height="20" fill="#ffe6cc" stroke="#d79b00" pointer-events="all"/><rect x="0" y="80" width="40" height="20" fill="#ffe6cc" stroke="#d79b00" pointer-events="all"/><rect x="40" y="80" width="40" height="20" fill="#ffe6cc" stroke="#d79b00" pointer-events="all"/><path d="M 20 20 L 47.15 74.3" fill="none" stroke="rgba(0, 0, 0, 1)" stroke-miterlimit="10" pointer-events="stroke"/><path d="M 49.5 79 L 43.24 74.3 L 47.15 74.3 L 49.5 71.17 Z" fill="rgba(0, 0, 0, 1)" stroke="rgba(0, 0, 0, 1)" stroke-miterlimit="10" pointer-events="all"/><path d="M 60 20 L 60 73.63" fill="none" stroke="rgba(0, 0, 0, 1)" stroke-miterlimit="10" pointer-events="stroke"/><path d="M 60 78.88 L 56.5 71.88 L 60 73.63 L 63.5 71.88 Z" fill="rgba(0, 0, 0, 1)" stroke="rgba(0, 0, 0, 1)" stroke-miterlimit="10" pointer-events="all"/><path d="M 100 20 L 72.85 74.3" fill="none" stroke="rgba(0, 0, 0, 1)" stroke-miterlimit="10" pointer-events="stroke"/><path d="M 70.5 79 L 70.5 71.17 L 72.85 74.3 L 76.76 74.3 Z" fill="rgba(0, 0, 0, 1)" stroke="rgba(0, 0, 0, 1)" stroke-miterlimit="10" pointer-events="all"/><rect x="80" y="80" width="40" height="20" fill="#ffe6cc" stroke="#d79b00" pointer-events="all"/><rect x="120" y="80" width="40" height="20" fill="#ffe6cc" stroke="#d79b00" pointer-events="all"/><rect x="160" y="80" width="40" height="20" fill="#ffe6cc" stroke="#d79b00" pointer-events="all"/><rect x="200" y="80" width="40" height="20" fill="#ffe6cc" stroke="#d79b00" pointer-events="all"/><path d="M 60 20 L 87.15 74.3" fill="none" stroke="rgba(0, 0, 0, 1)" stroke-miterlimit="10" pointer-events="stroke"/><path d="M 89.5 79 L 83.24 74.3 L 87.15 74.3 L 89.5 71.17 Z" fill="rgba(0, 0, 0, 1)" stroke="rgba(0, 0, 0, 1)" stroke-miterlimit="10" pointer-events="all"/><path d="M 100 20 L 100 73.63" fill="none" stroke="rgba(0, 0, 0, 1)" stroke-miterlimit="10" pointer-events="stroke"/><path d="M 100 78.88 L 96.5 71.88 L 100 73.63 L 103.5 71.88 Z" fill="rgba(0, 0, 0, 1)" stroke="rgba(0, 0, 0, 1)" stroke-miterlimit="10" pointer-events="all"/><path d="M 140 20 L 112.85 74.3" fill="none" stroke="rgba(0, 0, 0, 1)" stroke-miterlimit="10" pointer-events="stroke"/><path d="M 110.5 79 L 110.5 71.17 L 112.85 74.3 L 116.76 74.3 Z" fill="rgba(0, 0, 0, 1)" stroke="rgba(0, 0, 0, 1)" stroke-miterlimit="10" pointer-events="all"/><path d="M 100 20 L 127.15 74.3" fill="none" stroke="rgba(0, 0, 0, 1)" stroke-miterlimit="10" pointer-events="stroke"/><path d="M 129.5 79 L 123.24 74.3 L 127.15 74.3 L 129.5 71.17 Z" fill="rgba(0, 0, 0, 1)" stroke="rgba(0, 0, 0, 1)" stroke-miterlimit="10" pointer-events="all"/><path d="M 140 20 L 140 73.63" fill="none" stroke="rgba(0, 0, 0, 1)" stroke-miterlimit="10" pointer-events="stroke"/><path d="M 140 78.88 L 136.5 71.88 L 140 73.63 L 143.5 71.88 Z" fill="rgba(0, 0, 0, 1)" stroke="rgba(0, 0, 0, 1)" stroke-miterlimit="10" pointer-events="all"/><path d="M 180 20 L 152.85 74.3" fill="none" stroke="rgba(0, 0, 0, 1)" stroke-miterlimit="10" pointer-events="stroke"/><path d="M 150.5 79 L 150.5 71.17 L 152.85 74.3 L 156.76 74.3 Z" fill="rgba(0, 0, 0, 1)" stroke="rgba(0, 0, 0, 1)" stroke-miterlimit="10" pointer-events="all"/><path d="M 140 20 L 167.15 74.3" fill="none" stroke="rgba(0, 0, 0, 1)" stroke-miterlimit="10" pointer-events="stroke"/><path d="M 169.5 79 L 163.24 74.3 L 167.15 74.3 L 169.5 71.17 Z" fill="rgba(0, 0, 0, 1)" stroke="rgba(0, 0, 0, 1)" stroke-miterlimit="10" pointer-events="all"/><path d="M 180 20 L 180 73.63" fill="none" stroke="rgba(0, 0, 0, 1)" stroke-miterlimit="10" pointer-events="stroke"/><path d="M 180 78.88 L 176.5 71.88 L 180 73.63 L 183.5 71.88 Z" fill="rgba(0, 0, 0, 1)" stroke="rgba(0, 0, 0, 1)" stroke-miterlimit="10" pointer-events="all"/><path d="M 220 20 L 192.85 74.3" fill="none" stroke="rgba(0, 0, 0, 1)" stroke-miterlimit="10" pointer-events="stroke"/><path d="M 190.5 79 L 190.5 71.17 L 192.85 74.3 L 196.76 74.3 Z" fill="rgba(0, 0, 0, 1)" stroke="rgba(0, 0, 0, 1)" stroke-miterlimit="10" pointer-events="all"/></g></svg>